%TF.GenerationSoftware,KiCad,Pcbnew,9.0.2*%
%TF.CreationDate,2025-07-03T21:35:02+02:00*%
%TF.ProjectId,dialpad,6469616c-7061-4642-9e6b-696361645f70,v1.0*%
%TF.SameCoordinates,Original*%
%TF.FileFunction,Legend,Top*%
%TF.FilePolarity,Positive*%
%FSLAX46Y46*%
G04 Gerber Fmt 4.6, Leading zero omitted, Abs format (unit mm)*
G04 Created by KiCad (PCBNEW 9.0.2) date 2025-07-03 21:35:02*
%MOMM*%
%LPD*%
G01*
G04 APERTURE LIST*
%ADD10C,0.150000*%
%ADD11C,0.000000*%
%ADD12C,0.120000*%
%ADD13C,0.127000*%
%ADD14C,0.100000*%
%ADD15C,0.504000*%
G04 APERTURE END LIST*
D10*
X183150000Y-68195000D02*
X183150000Y-79195000D01*
X143150000Y-68195000D02*
X143150000Y-79695000D01*
X183150000Y-68195000D02*
X143150000Y-68195000D01*
D11*
G36*
X122051202Y-141999782D02*
G01*
X122069129Y-142055912D01*
X122076971Y-142083321D01*
X122083896Y-142110190D01*
X122089777Y-142136444D01*
X122094488Y-142162006D01*
X122097902Y-142186799D01*
X122099892Y-142210747D01*
X122100375Y-142228741D01*
X122099861Y-142246141D01*
X122098290Y-142262912D01*
X122097089Y-142271050D01*
X122095602Y-142279018D01*
X122093820Y-142286810D01*
X122091737Y-142294423D01*
X122089345Y-142301852D01*
X122086636Y-142309092D01*
X122083603Y-142316139D01*
X122080238Y-142322988D01*
X122076535Y-142329636D01*
X122072485Y-142336076D01*
X122068081Y-142342306D01*
X122063315Y-142348320D01*
X122058181Y-142354114D01*
X122052670Y-142359684D01*
X122046775Y-142365024D01*
X122040488Y-142370131D01*
X122033803Y-142375000D01*
X122026712Y-142379627D01*
X122019206Y-142384006D01*
X122011280Y-142388135D01*
X122002924Y-142392007D01*
X121994132Y-142395619D01*
X121984897Y-142398966D01*
X121975210Y-142402043D01*
X121965065Y-142404847D01*
X121954453Y-142407372D01*
X121929853Y-142411245D01*
X121905666Y-142412079D01*
X121881916Y-142410065D01*
X121858627Y-142405393D01*
X121835823Y-142398256D01*
X121813528Y-142388845D01*
X121791766Y-142377350D01*
X121770563Y-142363964D01*
X121749940Y-142348877D01*
X121729924Y-142332280D01*
X121710538Y-142314366D01*
X121691806Y-142295324D01*
X121673752Y-142275347D01*
X121656400Y-142254626D01*
X121623902Y-142211715D01*
X121594503Y-142168123D01*
X121568397Y-142125378D01*
X121545777Y-142085012D01*
X121526837Y-142048554D01*
X121500767Y-141993482D01*
X121491734Y-141972405D01*
X121968148Y-141768967D01*
X122051202Y-141999782D01*
G37*
G36*
X119901815Y-123278810D02*
G01*
X119904818Y-123279148D01*
X119907843Y-123279694D01*
X119910883Y-123280453D01*
X121390332Y-123701748D01*
X122012898Y-123879033D01*
X124676886Y-125042630D01*
X124678258Y-125043250D01*
X124679594Y-125043896D01*
X124680893Y-125044572D01*
X124682157Y-125045278D01*
X124683386Y-125046016D01*
X124684581Y-125046789D01*
X124685741Y-125047599D01*
X124686867Y-125048447D01*
X124687959Y-125049336D01*
X124689018Y-125050268D01*
X124690044Y-125051244D01*
X124691038Y-125052267D01*
X124692000Y-125053338D01*
X124692930Y-125054459D01*
X124693829Y-125055634D01*
X124694697Y-125056863D01*
X124737402Y-125125659D01*
X124810029Y-125263385D01*
X124900749Y-125472248D01*
X124949198Y-125604044D01*
X124997734Y-125754451D01*
X125044879Y-125923746D01*
X125089155Y-126112203D01*
X125129082Y-126320097D01*
X125163182Y-126547706D01*
X125189977Y-126795305D01*
X125207987Y-127063168D01*
X125215735Y-127351573D01*
X125211741Y-127660794D01*
X125178708Y-128183831D01*
X125108121Y-128758941D01*
X125057005Y-129066347D01*
X124994412Y-129387162D01*
X124919647Y-129721514D01*
X124832014Y-130069533D01*
X124730816Y-130431349D01*
X124615358Y-130807092D01*
X124484944Y-131196891D01*
X124338877Y-131600876D01*
X124176463Y-132019178D01*
X123997004Y-132451925D01*
X123799806Y-132899248D01*
X123584172Y-133361275D01*
X123357419Y-133868021D01*
X123162150Y-134374204D01*
X122996891Y-134878999D01*
X122860168Y-135381577D01*
X122750506Y-135881112D01*
X122666431Y-136376778D01*
X122606469Y-136867746D01*
X122569146Y-137353191D01*
X122552986Y-137832285D01*
X122556517Y-138304201D01*
X122578263Y-138768112D01*
X122616750Y-139223191D01*
X122670505Y-139668612D01*
X122738052Y-140103547D01*
X122817918Y-140527169D01*
X122908628Y-140938652D01*
X123116683Y-141721890D01*
X123350423Y-142446646D01*
X123598055Y-143106304D01*
X123847783Y-143694249D01*
X124087813Y-144203863D01*
X124306352Y-144628533D01*
X124631775Y-145196572D01*
X124633452Y-145199680D01*
X124634724Y-145202898D01*
X124635609Y-145206211D01*
X124636123Y-145209600D01*
X124636281Y-145213049D01*
X124636101Y-145216540D01*
X124635599Y-145220057D01*
X124634791Y-145223581D01*
X124633694Y-145227097D01*
X124632324Y-145230587D01*
X124630697Y-145234033D01*
X124628830Y-145237419D01*
X124626739Y-145240727D01*
X124624440Y-145243941D01*
X124621950Y-145247042D01*
X124619286Y-145250015D01*
X124616463Y-145252841D01*
X124613499Y-145255504D01*
X124610409Y-145257987D01*
X124607209Y-145260272D01*
X124603917Y-145262342D01*
X124600548Y-145264180D01*
X124597120Y-145265769D01*
X124593647Y-145267092D01*
X124590148Y-145268131D01*
X124586637Y-145268870D01*
X124583132Y-145269291D01*
X124579649Y-145269377D01*
X124576204Y-145269111D01*
X124572813Y-145268476D01*
X124569494Y-145267455D01*
X124566262Y-145266030D01*
X122650054Y-144281609D01*
X122647207Y-144280260D01*
X122644335Y-144279122D01*
X122641444Y-144278191D01*
X122638543Y-144277462D01*
X122635638Y-144276931D01*
X122632736Y-144276594D01*
X122629847Y-144276446D01*
X122626977Y-144276482D01*
X122624133Y-144276699D01*
X122621324Y-144277092D01*
X122618557Y-144277656D01*
X122615839Y-144278387D01*
X122613178Y-144279280D01*
X122610581Y-144280332D01*
X122608057Y-144281537D01*
X122605612Y-144282892D01*
X122603254Y-144284391D01*
X122600990Y-144286031D01*
X122598829Y-144287807D01*
X122596778Y-144289715D01*
X122594844Y-144291750D01*
X122593034Y-144293907D01*
X122591357Y-144296183D01*
X122589820Y-144298573D01*
X122588430Y-144301072D01*
X122587196Y-144303676D01*
X122586123Y-144306381D01*
X122585221Y-144309182D01*
X122584497Y-144312075D01*
X122583957Y-144315055D01*
X122583611Y-144318118D01*
X122583464Y-144321259D01*
X122576886Y-145116584D01*
X122576912Y-145748224D01*
X122582926Y-146469636D01*
X122582840Y-146473470D01*
X122582487Y-146477192D01*
X122581878Y-146480797D01*
X122581025Y-146484277D01*
X122579942Y-146487627D01*
X122578640Y-146490838D01*
X122577132Y-146493906D01*
X122575428Y-146496823D01*
X122573543Y-146499583D01*
X122571487Y-146502178D01*
X122569273Y-146504604D01*
X122566914Y-146506852D01*
X122564421Y-146508917D01*
X122561806Y-146510792D01*
X122559082Y-146512470D01*
X122556261Y-146513944D01*
X122553355Y-146515209D01*
X122550376Y-146516258D01*
X122547336Y-146517084D01*
X122544248Y-146517680D01*
X122541123Y-146518040D01*
X122537975Y-146518157D01*
X122534814Y-146518025D01*
X122531653Y-146517638D01*
X122528505Y-146516988D01*
X122525382Y-146516069D01*
X122522295Y-146514874D01*
X122519257Y-146513398D01*
X122516279Y-146511633D01*
X122513376Y-146509573D01*
X122510557Y-146507211D01*
X122507836Y-146504540D01*
X122112103Y-146072032D01*
X121462977Y-145317834D01*
X120654821Y-144301537D01*
X120220596Y-143713724D01*
X119782000Y-143082734D01*
X119350828Y-142416015D01*
X119118637Y-142024288D01*
X120225855Y-142024288D01*
X120225907Y-142052880D01*
X120227313Y-142083253D01*
X120230055Y-142115113D01*
X120234118Y-142148167D01*
X120239486Y-142182123D01*
X120246141Y-142216687D01*
X120254067Y-142251567D01*
X120263249Y-142286469D01*
X120298916Y-142386805D01*
X120337089Y-142481042D01*
X120377631Y-142569052D01*
X120398746Y-142610682D01*
X120420402Y-142650707D01*
X120442581Y-142689111D01*
X120465265Y-142725878D01*
X120488437Y-142760992D01*
X120512081Y-142794438D01*
X120536179Y-142826198D01*
X120560713Y-142856258D01*
X120585666Y-142884600D01*
X120611022Y-142911210D01*
X120636762Y-142936070D01*
X120662870Y-142959166D01*
X120689328Y-142980481D01*
X120716119Y-142999998D01*
X120743226Y-143017703D01*
X120770631Y-143033578D01*
X120798317Y-143047609D01*
X120826268Y-143059778D01*
X120854465Y-143070070D01*
X120882891Y-143078469D01*
X120911529Y-143084959D01*
X120940362Y-143089524D01*
X120969373Y-143092148D01*
X120998544Y-143092814D01*
X121027858Y-143091508D01*
X121057297Y-143088212D01*
X121115385Y-143078106D01*
X121171524Y-143065038D01*
X121198798Y-143057424D01*
X121225507Y-143049106D01*
X121251625Y-143040095D01*
X121277125Y-143030405D01*
X121301983Y-143020047D01*
X121326172Y-143009032D01*
X121349666Y-142997375D01*
X121372439Y-142985085D01*
X121394465Y-142972175D01*
X121415719Y-142958659D01*
X121436174Y-142944546D01*
X121455804Y-142929850D01*
X121474583Y-142914583D01*
X121492486Y-142898757D01*
X121509486Y-142882383D01*
X121525558Y-142865474D01*
X121540676Y-142848042D01*
X121554813Y-142830099D01*
X121567943Y-142811658D01*
X121580041Y-142792729D01*
X121591081Y-142773325D01*
X121601037Y-142753459D01*
X121609882Y-142733143D01*
X121617592Y-142712387D01*
X121624139Y-142691205D01*
X121629498Y-142669609D01*
X121633643Y-142647611D01*
X121636548Y-142625222D01*
X121661755Y-142637215D01*
X121691306Y-142650424D01*
X121730415Y-142666856D01*
X121777778Y-142685321D01*
X121832088Y-142704632D01*
X121892041Y-142723600D01*
X121923726Y-142732584D01*
X121956332Y-142741036D01*
X121975407Y-142744187D01*
X121994641Y-142746605D01*
X122014000Y-142748303D01*
X122033450Y-142749296D01*
X122052958Y-142749599D01*
X122072491Y-142749226D01*
X122092015Y-142748191D01*
X122111497Y-142746509D01*
X122150201Y-142741259D01*
X122188337Y-142733592D01*
X122225636Y-142723622D01*
X122261832Y-142711465D01*
X122296658Y-142697234D01*
X122329847Y-142681046D01*
X122361132Y-142663015D01*
X122375976Y-142653344D01*
X122390245Y-142643256D01*
X122403904Y-142632764D01*
X122416920Y-142621883D01*
X122429259Y-142610627D01*
X122440889Y-142599012D01*
X122451776Y-142587050D01*
X122461886Y-142574757D01*
X122471186Y-142562146D01*
X122479643Y-142549233D01*
X122483547Y-142538030D01*
X122487201Y-142526728D01*
X122490607Y-142515327D01*
X122493763Y-142503825D01*
X122496670Y-142492222D01*
X122499329Y-142480517D01*
X122503902Y-142456798D01*
X122507485Y-142432663D01*
X122510080Y-142408105D01*
X122511688Y-142383118D01*
X122512312Y-142357697D01*
X122511405Y-142318741D01*
X122508289Y-142278771D01*
X122502968Y-142237765D01*
X122495450Y-142195702D01*
X122485740Y-142152560D01*
X122473843Y-142108317D01*
X122459764Y-142062953D01*
X122443511Y-142016445D01*
X122425087Y-141968772D01*
X122404500Y-141919911D01*
X122381754Y-141869843D01*
X122356855Y-141818544D01*
X122329808Y-141765994D01*
X122300620Y-141712170D01*
X122269296Y-141657052D01*
X122235842Y-141600617D01*
X122223083Y-141578624D01*
X122210537Y-141558287D01*
X122198200Y-141539546D01*
X122186065Y-141522343D01*
X122174129Y-141506615D01*
X122162385Y-141492305D01*
X122150828Y-141479351D01*
X122139454Y-141467693D01*
X122128257Y-141457272D01*
X122117231Y-141448028D01*
X122106372Y-141439900D01*
X122095675Y-141432828D01*
X122085133Y-141426754D01*
X122074742Y-141421616D01*
X122064497Y-141417354D01*
X122054392Y-141413910D01*
X122044423Y-141411221D01*
X122034583Y-141409230D01*
X122024869Y-141407875D01*
X122015274Y-141407097D01*
X122005793Y-141406835D01*
X121996421Y-141407030D01*
X121977984Y-141408551D01*
X121959920Y-141411177D01*
X121942189Y-141414431D01*
X121907555Y-141420899D01*
X121139222Y-141655636D01*
X120584344Y-141818264D01*
X120382508Y-141872746D01*
X120315277Y-141888510D01*
X120276135Y-141894807D01*
X120270265Y-141896173D01*
X120264768Y-141898607D01*
X120259643Y-141902073D01*
X120254886Y-141906532D01*
X120250497Y-141911950D01*
X120246473Y-141918289D01*
X120239511Y-141933584D01*
X120233985Y-141952124D01*
X120229878Y-141973617D01*
X120227173Y-141997769D01*
X120225855Y-142024288D01*
X119118637Y-142024288D01*
X118938877Y-141721017D01*
X118557940Y-141005189D01*
X118402425Y-140669800D01*
X119584242Y-140669800D01*
X119585796Y-140723208D01*
X119589464Y-140767432D01*
X119597901Y-140822411D01*
X119605368Y-140850316D01*
X119614099Y-140876836D01*
X119624042Y-140902016D01*
X119635143Y-140925901D01*
X119647351Y-140948534D01*
X119660613Y-140969959D01*
X119674877Y-140990221D01*
X119690090Y-141009364D01*
X119706199Y-141027431D01*
X119723152Y-141044468D01*
X119740897Y-141060517D01*
X119759381Y-141075623D01*
X119798357Y-141103182D01*
X119839660Y-141127499D01*
X119882869Y-141148926D01*
X119927566Y-141167816D01*
X119973329Y-141184521D01*
X120019741Y-141199395D01*
X120112825Y-141225058D01*
X120203461Y-141247628D01*
X120254902Y-141257041D01*
X120315802Y-141262419D01*
X120385118Y-141264038D01*
X120461803Y-141262176D01*
X120544814Y-141257108D01*
X120633106Y-141249113D01*
X120821356Y-141225444D01*
X121018194Y-141193382D01*
X121215264Y-141155143D01*
X121404209Y-141112940D01*
X121576672Y-141068986D01*
X121616310Y-141053524D01*
X121653702Y-141036976D01*
X121688804Y-141019450D01*
X121721571Y-141001056D01*
X121751960Y-140981904D01*
X121766248Y-140972078D01*
X121779926Y-140962103D01*
X121792986Y-140951994D01*
X121805424Y-140941763D01*
X121817235Y-140931425D01*
X121828412Y-140920994D01*
X121838950Y-140910482D01*
X121848844Y-140899904D01*
X121858087Y-140889273D01*
X121866676Y-140878603D01*
X121874603Y-140867908D01*
X121881864Y-140857202D01*
X121888452Y-140846497D01*
X121894363Y-140835808D01*
X121899591Y-140825149D01*
X121904131Y-140814533D01*
X121907976Y-140803974D01*
X121911121Y-140793485D01*
X121913561Y-140783081D01*
X121915290Y-140772775D01*
X121916303Y-140762580D01*
X121916594Y-140752511D01*
X121915599Y-140737128D01*
X121912824Y-140722133D01*
X121908246Y-140707578D01*
X121901847Y-140693514D01*
X121893604Y-140679992D01*
X121883498Y-140667064D01*
X121871508Y-140654781D01*
X121857612Y-140643194D01*
X121841791Y-140632355D01*
X121824024Y-140622316D01*
X121804290Y-140613127D01*
X121782568Y-140604840D01*
X121758838Y-140597507D01*
X121733079Y-140591179D01*
X121705270Y-140585906D01*
X121675391Y-140581742D01*
X121653915Y-140581893D01*
X121631462Y-140583363D01*
X121608025Y-140586052D01*
X121583593Y-140589861D01*
X121531713Y-140600438D01*
X121475754Y-140614295D01*
X121351315Y-140648653D01*
X121282696Y-140667558D01*
X121209719Y-140686547D01*
X121048745Y-140713194D01*
X120882980Y-140738505D01*
X120717296Y-140760037D01*
X120636008Y-140768620D01*
X120556568Y-140775342D01*
X120479586Y-140779895D01*
X120405671Y-140781975D01*
X120335433Y-140781276D01*
X120269479Y-140777491D01*
X120208421Y-140770316D01*
X120152867Y-140759444D01*
X120103426Y-140744570D01*
X120081188Y-140735537D01*
X120060708Y-140725388D01*
X120048242Y-140715999D01*
X120036738Y-140706013D01*
X120026186Y-140695468D01*
X120016580Y-140684404D01*
X120007911Y-140672860D01*
X120000172Y-140660876D01*
X119993356Y-140648490D01*
X119987454Y-140635743D01*
X119982459Y-140622672D01*
X119978363Y-140609318D01*
X119975159Y-140595720D01*
X119972839Y-140581916D01*
X119971395Y-140567946D01*
X119970820Y-140553850D01*
X119971106Y-140539666D01*
X119972245Y-140525434D01*
X119974230Y-140511193D01*
X119977053Y-140496982D01*
X119980706Y-140482841D01*
X119985182Y-140468808D01*
X119990473Y-140454924D01*
X119996571Y-140441226D01*
X120003468Y-140427755D01*
X120011158Y-140414549D01*
X120019632Y-140401648D01*
X120028883Y-140389092D01*
X120038903Y-140376918D01*
X120049684Y-140365168D01*
X120061218Y-140353878D01*
X120073499Y-140343090D01*
X120086518Y-140332843D01*
X120100268Y-140323174D01*
X120175689Y-140289620D01*
X120261373Y-140257246D01*
X120355572Y-140226003D01*
X120456538Y-140195840D01*
X120671782Y-140138553D01*
X120893124Y-140084980D01*
X121106583Y-140034716D01*
X121298177Y-139987358D01*
X121381406Y-139964643D01*
X121453925Y-139942502D01*
X121513987Y-139920886D01*
X121559845Y-139899743D01*
X121583269Y-139885682D01*
X121604336Y-139871090D01*
X121623104Y-139856035D01*
X121639631Y-139840589D01*
X121653975Y-139824818D01*
X121666195Y-139808794D01*
X121676349Y-139792585D01*
X121684494Y-139776261D01*
X121690688Y-139759890D01*
X121694991Y-139743543D01*
X121697458Y-139727288D01*
X121698150Y-139711195D01*
X121697123Y-139695333D01*
X121694437Y-139679771D01*
X121690148Y-139664579D01*
X121684315Y-139649826D01*
X121676996Y-139635581D01*
X121668249Y-139621914D01*
X121658132Y-139608893D01*
X121646703Y-139596589D01*
X121634021Y-139585070D01*
X121620143Y-139574406D01*
X121605127Y-139564666D01*
X121589032Y-139555919D01*
X121571915Y-139548235D01*
X121553834Y-139541683D01*
X121534848Y-139536332D01*
X121515015Y-139532252D01*
X121494392Y-139529511D01*
X121473038Y-139528180D01*
X121451011Y-139528327D01*
X121428368Y-139530022D01*
X121336779Y-139542259D01*
X121241036Y-139559891D01*
X121134506Y-139584198D01*
X121010554Y-139616459D01*
X120683849Y-139709955D01*
X120207848Y-139850609D01*
X120142485Y-139873605D01*
X120081747Y-139898925D01*
X120025472Y-139926383D01*
X119973496Y-139955795D01*
X119925654Y-139986976D01*
X119881783Y-140019742D01*
X119841719Y-140053907D01*
X119805298Y-140089287D01*
X119772355Y-140125698D01*
X119742728Y-140162953D01*
X119716252Y-140200869D01*
X119692763Y-140239261D01*
X119672097Y-140277943D01*
X119654091Y-140316732D01*
X119638581Y-140355442D01*
X119625402Y-140393888D01*
X119614391Y-140431886D01*
X119605383Y-140469252D01*
X119592725Y-140541344D01*
X119586115Y-140608686D01*
X119584242Y-140669800D01*
X118402425Y-140669800D01*
X118219815Y-140275979D01*
X117936295Y-139540837D01*
X117818699Y-139173369D01*
X117719177Y-138807211D01*
X117659195Y-138534262D01*
X118964857Y-138534262D01*
X118969171Y-138631769D01*
X118980697Y-138739519D01*
X118998044Y-138854034D01*
X119019819Y-138971835D01*
X119071090Y-139203386D01*
X119123377Y-139406350D01*
X119165546Y-139552902D01*
X119186465Y-139615220D01*
X119189758Y-139621926D01*
X119193176Y-139630932D01*
X119201199Y-139654669D01*
X119206211Y-139668810D01*
X119212163Y-139684073D01*
X119219257Y-139700164D01*
X119227698Y-139716787D01*
X119237689Y-139733649D01*
X119243330Y-139742077D01*
X119249435Y-139750454D01*
X119256029Y-139758744D01*
X119263138Y-139766909D01*
X119270788Y-139774912D01*
X119279003Y-139782717D01*
X119287810Y-139790288D01*
X119297233Y-139797586D01*
X119307299Y-139804575D01*
X119318032Y-139811219D01*
X119329459Y-139817481D01*
X119341604Y-139823324D01*
X119354494Y-139828710D01*
X119368153Y-139833604D01*
X119381685Y-139838373D01*
X119394729Y-139841284D01*
X119407280Y-139842420D01*
X119419333Y-139841864D01*
X119430881Y-139839700D01*
X119441919Y-139836011D01*
X119452440Y-139830881D01*
X119462439Y-139824391D01*
X119471910Y-139816627D01*
X119480847Y-139807671D01*
X119489244Y-139797606D01*
X119497096Y-139786517D01*
X119504396Y-139774485D01*
X119511138Y-139761595D01*
X119522928Y-139733573D01*
X119532418Y-139703116D01*
X119539560Y-139670892D01*
X119544309Y-139637567D01*
X119546617Y-139603807D01*
X119546438Y-139570279D01*
X119543724Y-139537650D01*
X119538429Y-139506586D01*
X119530505Y-139477753D01*
X119509138Y-139405920D01*
X119484259Y-139307180D01*
X119459176Y-139191658D01*
X119447593Y-139130768D01*
X119437201Y-139069478D01*
X119428412Y-139009054D01*
X119421641Y-138950762D01*
X119417301Y-138895867D01*
X119415807Y-138845634D01*
X119417571Y-138801329D01*
X119419804Y-138781795D01*
X119423007Y-138764218D01*
X119427232Y-138748755D01*
X119432530Y-138735565D01*
X119438953Y-138724807D01*
X119446553Y-138716637D01*
X119472694Y-138704224D01*
X119517013Y-138693978D01*
X119577584Y-138685458D01*
X119652483Y-138678221D01*
X120056856Y-138653281D01*
X120294960Y-138637030D01*
X120536478Y-138613546D01*
X120653705Y-138597988D01*
X120766010Y-138579296D01*
X120871468Y-138557030D01*
X120968155Y-138530747D01*
X121000750Y-138525206D01*
X121032053Y-138519384D01*
X121062082Y-138513291D01*
X121090854Y-138506940D01*
X121118388Y-138500341D01*
X121144700Y-138493505D01*
X121169809Y-138486442D01*
X121193733Y-138479164D01*
X121216489Y-138471682D01*
X121238094Y-138464006D01*
X121258567Y-138456148D01*
X121277925Y-138448119D01*
X121296186Y-138439928D01*
X121313368Y-138431588D01*
X121329488Y-138423109D01*
X121344564Y-138414503D01*
X121358614Y-138405779D01*
X121371655Y-138396950D01*
X121383706Y-138388025D01*
X121394784Y-138379016D01*
X121404906Y-138369934D01*
X121414090Y-138360790D01*
X121422355Y-138351594D01*
X121429717Y-138342358D01*
X121436195Y-138333093D01*
X121441806Y-138323809D01*
X121446568Y-138314517D01*
X121450499Y-138305229D01*
X121453616Y-138295954D01*
X121455937Y-138286705D01*
X121457480Y-138277492D01*
X121458262Y-138268326D01*
X121458260Y-138268326D01*
X121458250Y-138258009D01*
X121457311Y-138247782D01*
X121455470Y-138237661D01*
X121452753Y-138227662D01*
X121449185Y-138217800D01*
X121444792Y-138208092D01*
X121439600Y-138198554D01*
X121433635Y-138189201D01*
X121426923Y-138180049D01*
X121419488Y-138171114D01*
X121402558Y-138153960D01*
X121383052Y-138137866D01*
X121361174Y-138122958D01*
X121337133Y-138109364D01*
X121311133Y-138097210D01*
X121283383Y-138086625D01*
X121254088Y-138077735D01*
X121223454Y-138070667D01*
X121191688Y-138065549D01*
X121158997Y-138062507D01*
X121125586Y-138061669D01*
X121059592Y-138063480D01*
X120988871Y-138067575D01*
X120835460Y-138081600D01*
X120669776Y-138101704D01*
X120496239Y-138125849D01*
X120143291Y-138178107D01*
X119972722Y-138202142D01*
X119811986Y-138222062D01*
X119366071Y-138269273D01*
X119287120Y-138278528D01*
X119211084Y-138288768D01*
X119132913Y-138300997D01*
X119047558Y-138316216D01*
X119026648Y-138323859D01*
X119009106Y-138337974D01*
X118994759Y-138358128D01*
X118983433Y-138383886D01*
X118974954Y-138414813D01*
X118969147Y-138450475D01*
X118965840Y-138490436D01*
X118964857Y-138534262D01*
X117659195Y-138534262D01*
X117639205Y-138443295D01*
X117580257Y-138082551D01*
X117543806Y-137725911D01*
X117531329Y-137374306D01*
X117534164Y-137180474D01*
X118622823Y-137180474D01*
X118623522Y-137235715D01*
X118627734Y-137292515D01*
X118635500Y-137350861D01*
X118646073Y-137407719D01*
X118658569Y-137460171D01*
X118672843Y-137508376D01*
X118688750Y-137552495D01*
X118706144Y-137592686D01*
X118724881Y-137629109D01*
X118744815Y-137661922D01*
X118765802Y-137691284D01*
X118787695Y-137717356D01*
X118810349Y-137740296D01*
X118833620Y-137760264D01*
X118857363Y-137777418D01*
X118881431Y-137791917D01*
X118905681Y-137803922D01*
X118929966Y-137813591D01*
X118954142Y-137821083D01*
X118978063Y-137826557D01*
X119001584Y-137830174D01*
X119024560Y-137832091D01*
X119046846Y-137832468D01*
X119068296Y-137831465D01*
X119088766Y-137829240D01*
X119108110Y-137825952D01*
X119126183Y-137821762D01*
X119142840Y-137816827D01*
X119157936Y-137811308D01*
X119171324Y-137805363D01*
X119182862Y-137799152D01*
X119192402Y-137792833D01*
X119199800Y-137786567D01*
X119204911Y-137780512D01*
X119207589Y-137774827D01*
X119210286Y-137766453D01*
X119213672Y-137758482D01*
X119221382Y-137742101D01*
X119225144Y-137732865D01*
X119228470Y-137722382D01*
X119231077Y-137710238D01*
X119232685Y-137696023D01*
X119233012Y-137679322D01*
X119231777Y-137659723D01*
X119228699Y-137636814D01*
X119223496Y-137610182D01*
X119215888Y-137579414D01*
X119205592Y-137544098D01*
X119192328Y-137503820D01*
X119175814Y-137458169D01*
X119167322Y-137434108D01*
X119160078Y-137410416D01*
X119154095Y-137387087D01*
X119149385Y-137364115D01*
X119145963Y-137341495D01*
X119143842Y-137319219D01*
X119143033Y-137297283D01*
X119143551Y-137275680D01*
X119145407Y-137254405D01*
X119148617Y-137233451D01*
X119153192Y-137212813D01*
X119159145Y-137192485D01*
X119166489Y-137172461D01*
X119175239Y-137152734D01*
X119185406Y-137133300D01*
X119197003Y-137114152D01*
X119210045Y-137095284D01*
X119224543Y-137076690D01*
X119240511Y-137058364D01*
X119257962Y-137040301D01*
X119276909Y-137022495D01*
X119297364Y-137004939D01*
X119319342Y-136987628D01*
X119342855Y-136970556D01*
X119367916Y-136953717D01*
X119394539Y-136937104D01*
X119452519Y-136904537D01*
X119516901Y-136872807D01*
X119587788Y-136841866D01*
X119640822Y-136822302D01*
X119699064Y-136804192D01*
X119761808Y-136787834D01*
X119828348Y-136773527D01*
X119897978Y-136761569D01*
X119969994Y-136752257D01*
X120043687Y-136745890D01*
X120118354Y-136742767D01*
X120193287Y-136743185D01*
X120267782Y-136747443D01*
X120341132Y-136755839D01*
X120412631Y-136768671D01*
X120481573Y-136786237D01*
X120547253Y-136808836D01*
X120578649Y-136822116D01*
X120608965Y-136836765D01*
X120638112Y-136852822D01*
X120666003Y-136870324D01*
X120673883Y-136875762D01*
X120681407Y-136881178D01*
X120688588Y-136886569D01*
X120695434Y-136891929D01*
X120701956Y-136897256D01*
X120708164Y-136902544D01*
X120719681Y-136912987D01*
X120730068Y-136923225D01*
X120739407Y-136933224D01*
X120747781Y-136942951D01*
X120755273Y-136952371D01*
X120761964Y-136961451D01*
X120767939Y-136970157D01*
X120773280Y-136978455D01*
X120778068Y-136986310D01*
X120793360Y-137012635D01*
X120799603Y-137023535D01*
X120805062Y-137034434D01*
X120809773Y-137045312D01*
X120813770Y-137056151D01*
X120817089Y-137066933D01*
X120819764Y-137077638D01*
X120821829Y-137088249D01*
X120823321Y-137098747D01*
X120824274Y-137109112D01*
X120824722Y-137119327D01*
X120824701Y-137129374D01*
X120824245Y-137139232D01*
X120823390Y-137148884D01*
X120822170Y-137158311D01*
X120820620Y-137167495D01*
X120818776Y-137176416D01*
X120816671Y-137185057D01*
X120814341Y-137193398D01*
X120809145Y-137209109D01*
X120803466Y-137223399D01*
X120797585Y-137236120D01*
X120791779Y-137247123D01*
X120786329Y-137256258D01*
X120781512Y-137263378D01*
X120777609Y-137268334D01*
X120756953Y-137298097D01*
X120739113Y-137326341D01*
X120723991Y-137353080D01*
X120711493Y-137378329D01*
X120701521Y-137402104D01*
X120693979Y-137424419D01*
X120688770Y-137445290D01*
X120685800Y-137464730D01*
X120684970Y-137482756D01*
X120686185Y-137499383D01*
X120689349Y-137514624D01*
X120694365Y-137528496D01*
X120701136Y-137541012D01*
X120709568Y-137552189D01*
X120719562Y-137562041D01*
X120731023Y-137570583D01*
X120743854Y-137577830D01*
X120757960Y-137583797D01*
X120773244Y-137588499D01*
X120789609Y-137591951D01*
X120806959Y-137594167D01*
X120825198Y-137595164D01*
X120844230Y-137594955D01*
X120863957Y-137593556D01*
X120884285Y-137590982D01*
X120905116Y-137587248D01*
X120926354Y-137582368D01*
X120947903Y-137576358D01*
X120969666Y-137569233D01*
X120991548Y-137561007D01*
X121013452Y-137551696D01*
X121035281Y-137541314D01*
X121068545Y-137516807D01*
X121099871Y-137491747D01*
X121125586Y-137469322D01*
X121129232Y-137466143D01*
X121156604Y-137439999D01*
X121181962Y-137413323D01*
X121205281Y-137386123D01*
X121226536Y-137358404D01*
X121245704Y-137330173D01*
X121262758Y-137301438D01*
X121277674Y-137272205D01*
X121290427Y-137242481D01*
X121300992Y-137212272D01*
X121309344Y-137181586D01*
X121315459Y-137150430D01*
X121319312Y-137118809D01*
X121320878Y-137086732D01*
X121320498Y-137061472D01*
X121318707Y-137035945D01*
X121315493Y-137010152D01*
X121310846Y-136984097D01*
X121304752Y-136957783D01*
X121297202Y-136931213D01*
X121288183Y-136904390D01*
X121277683Y-136877318D01*
X121265692Y-136849999D01*
X121252197Y-136822437D01*
X121237187Y-136794634D01*
X121220651Y-136766594D01*
X121202577Y-136738320D01*
X121182954Y-136709814D01*
X121161769Y-136681081D01*
X121139012Y-136652123D01*
X121097428Y-136613299D01*
X121051496Y-136576420D01*
X121001189Y-136541588D01*
X120946480Y-136508905D01*
X120887344Y-136478473D01*
X120823754Y-136450395D01*
X120755682Y-136424772D01*
X120683103Y-136401706D01*
X120605991Y-136381301D01*
X120524317Y-136363656D01*
X120438057Y-136348876D01*
X120347183Y-136337061D01*
X120251669Y-136328315D01*
X120151488Y-136322738D01*
X120046614Y-136320434D01*
X119937020Y-136321503D01*
X119854576Y-136325268D01*
X119774396Y-136331008D01*
X119696525Y-136338710D01*
X119621004Y-136348359D01*
X119547877Y-136359942D01*
X119477187Y-136373442D01*
X119408976Y-136388847D01*
X119343289Y-136406142D01*
X119280168Y-136425313D01*
X119219655Y-136446344D01*
X119161794Y-136469222D01*
X119106629Y-136493933D01*
X119054201Y-136520462D01*
X119004554Y-136548795D01*
X118957731Y-136578917D01*
X118913776Y-136610814D01*
X118872730Y-136644472D01*
X118834637Y-136679876D01*
X118799541Y-136717012D01*
X118767483Y-136755866D01*
X118738508Y-136796423D01*
X118712658Y-136838668D01*
X118689976Y-136882589D01*
X118670505Y-136928170D01*
X118654288Y-136975396D01*
X118641368Y-137024254D01*
X118631789Y-137074730D01*
X118625593Y-137126808D01*
X118622823Y-137180474D01*
X117534164Y-137180474D01*
X117542028Y-136642879D01*
X117572989Y-135951301D01*
X117622503Y-135296301D01*
X117688862Y-134674608D01*
X117719693Y-134450783D01*
X118716024Y-134450783D01*
X118716120Y-134478461D01*
X118719115Y-134505837D01*
X118725132Y-134532716D01*
X118734293Y-134558897D01*
X118746722Y-134584184D01*
X118762542Y-134608378D01*
X118781875Y-134631282D01*
X118804845Y-134652697D01*
X118831575Y-134672425D01*
X118862188Y-134690268D01*
X118896806Y-134706029D01*
X118935552Y-134719508D01*
X118978551Y-134730509D01*
X119025924Y-134738833D01*
X119077794Y-134744283D01*
X119134285Y-134746659D01*
X119218521Y-134736492D01*
X119309889Y-134721061D01*
X119408423Y-134700232D01*
X119514159Y-134673873D01*
X119627128Y-134641849D01*
X119747366Y-134604028D01*
X119874906Y-134560276D01*
X120009781Y-134510461D01*
X120046614Y-134496873D01*
X120052610Y-134494662D01*
X120097251Y-134476588D01*
X120149469Y-134453219D01*
X120176566Y-134439898D01*
X120203334Y-134425673D01*
X120229032Y-134410682D01*
X120252917Y-134395066D01*
X120274250Y-134378963D01*
X120283727Y-134370773D01*
X120292288Y-134362513D01*
X120299840Y-134354202D01*
X120306290Y-134345857D01*
X120311547Y-134337494D01*
X120315516Y-134329133D01*
X120417543Y-134428843D01*
X120527266Y-134532317D01*
X120660299Y-134652724D01*
X120804768Y-134775956D01*
X120877581Y-134834222D01*
X120948800Y-134887903D01*
X121016942Y-134935236D01*
X121080521Y-134974457D01*
X121138055Y-135003802D01*
X121164091Y-135014220D01*
X121188059Y-135021508D01*
X121234931Y-135031202D01*
X121279221Y-135036423D01*
X121320173Y-135036878D01*
X121339161Y-135035227D01*
X121357031Y-135032273D01*
X121373687Y-135027981D01*
X121389036Y-135022313D01*
X121402983Y-135015233D01*
X121415432Y-135006704D01*
X121426291Y-134996689D01*
X121435463Y-134985152D01*
X121442854Y-134972056D01*
X121448370Y-134957363D01*
X121451916Y-134941037D01*
X121453397Y-134923042D01*
X121452718Y-134903341D01*
X121449786Y-134881896D01*
X121444505Y-134858671D01*
X121436781Y-134833630D01*
X121426520Y-134806735D01*
X121413625Y-134777949D01*
X121398004Y-134747237D01*
X121379561Y-134714561D01*
X121358201Y-134679884D01*
X121333831Y-134643170D01*
X121306355Y-134604382D01*
X121275678Y-134563483D01*
X121241707Y-134520436D01*
X121204346Y-134475205D01*
X121166081Y-134430140D01*
X121129448Y-134387565D01*
X121094422Y-134347410D01*
X121060974Y-134309607D01*
X121029077Y-134274086D01*
X120998703Y-134240777D01*
X120969826Y-134209610D01*
X120942417Y-134180517D01*
X120916449Y-134153428D01*
X120891895Y-134128273D01*
X120868727Y-134104983D01*
X120846919Y-134083488D01*
X120826441Y-134063719D01*
X120807268Y-134045606D01*
X120789371Y-134029080D01*
X120772723Y-134014072D01*
X120743064Y-133988330D01*
X120718072Y-133967823D01*
X120697528Y-133951997D01*
X120681211Y-133940294D01*
X120668903Y-133932160D01*
X120660383Y-133927038D01*
X120653830Y-133923608D01*
X120742185Y-133941787D01*
X120841149Y-133960174D01*
X120966430Y-133980902D01*
X121110375Y-134001081D01*
X121265330Y-134017817D01*
X121344545Y-134023991D01*
X121423641Y-134028220D01*
X121473038Y-134029437D01*
X121501664Y-134030142D01*
X121577654Y-134029397D01*
X121604639Y-134031456D01*
X121631273Y-134032134D01*
X121657523Y-134031481D01*
X121683354Y-134029549D01*
X121708733Y-134026390D01*
X121733626Y-134022054D01*
X121758000Y-134016594D01*
X121781821Y-134010059D01*
X121805055Y-134002502D01*
X121827669Y-133993975D01*
X121849628Y-133984527D01*
X121870899Y-133974211D01*
X121891448Y-133963078D01*
X121911242Y-133951180D01*
X121930246Y-133938567D01*
X121948428Y-133925291D01*
X121965753Y-133911403D01*
X121982187Y-133896955D01*
X121997697Y-133881998D01*
X122005793Y-133873423D01*
X122012250Y-133866583D01*
X122025811Y-133850762D01*
X122038346Y-133834586D01*
X122049823Y-133818106D01*
X122060207Y-133801374D01*
X122069464Y-133784440D01*
X122077561Y-133767357D01*
X122084465Y-133750176D01*
X122090140Y-133732947D01*
X122094555Y-133715723D01*
X122097674Y-133698555D01*
X122099464Y-133681493D01*
X122099892Y-133664590D01*
X122099070Y-133649405D01*
X122097067Y-133634433D01*
X122093858Y-133619711D01*
X122089419Y-133605278D01*
X122083723Y-133591173D01*
X122076747Y-133577435D01*
X122072771Y-133570715D01*
X122068465Y-133564101D01*
X122063826Y-133557598D01*
X122058851Y-133551211D01*
X122053537Y-133544944D01*
X122047881Y-133538803D01*
X122041880Y-133532791D01*
X122035530Y-133526915D01*
X122028828Y-133521178D01*
X122021771Y-133515586D01*
X122006582Y-133504854D01*
X121989935Y-133494759D01*
X121971806Y-133485338D01*
X121952170Y-133476630D01*
X121931002Y-133468674D01*
X121845163Y-133444414D01*
X121758223Y-133426723D01*
X121669650Y-133414289D01*
X121578911Y-133405798D01*
X121183654Y-133384991D01*
X121074103Y-133376511D01*
X120959193Y-133364093D01*
X120838392Y-133346422D01*
X120711167Y-133322185D01*
X120576987Y-133290069D01*
X120435318Y-133248760D01*
X120285629Y-133196945D01*
X120127387Y-133133309D01*
X120085702Y-133115187D01*
X120040622Y-133094506D01*
X119943269Y-133047351D01*
X119841306Y-132995616D01*
X119740713Y-132943071D01*
X119471613Y-132800194D01*
X119435385Y-132782628D01*
X119400238Y-132768627D01*
X119366310Y-132758083D01*
X119333738Y-132750890D01*
X119302662Y-132746941D01*
X119273219Y-132746128D01*
X119245547Y-132748346D01*
X119219785Y-132753487D01*
X119196070Y-132761444D01*
X119174541Y-132772110D01*
X119155336Y-132785378D01*
X119138592Y-132801142D01*
X119124449Y-132819294D01*
X119113044Y-132839727D01*
X119104516Y-132862335D01*
X119099002Y-132887010D01*
X119096641Y-132913646D01*
X119097570Y-132942136D01*
X119101928Y-132972373D01*
X119109853Y-133004249D01*
X119121484Y-133037658D01*
X119136957Y-133072493D01*
X119156412Y-133108648D01*
X119179987Y-133146014D01*
X119207819Y-133184485D01*
X119240046Y-133223955D01*
X119276808Y-133264316D01*
X119318242Y-133305461D01*
X119364486Y-133347284D01*
X119415678Y-133389677D01*
X119471956Y-133432534D01*
X119533459Y-133475747D01*
X119565529Y-133496856D01*
X119602372Y-133518034D01*
X119643045Y-133539084D01*
X119686604Y-133559809D01*
X119732104Y-133580010D01*
X119778601Y-133599491D01*
X119870810Y-133635501D01*
X119955676Y-133666258D01*
X120025648Y-133690184D01*
X120090689Y-133711220D01*
X120113333Y-133912423D01*
X119685121Y-134005367D01*
X119320819Y-134077800D01*
X119150985Y-134107748D01*
X119008357Y-134128655D01*
X118978799Y-134134211D01*
X118950173Y-134142634D01*
X118922601Y-134153727D01*
X118896205Y-134167291D01*
X118871109Y-134183130D01*
X118847437Y-134201044D01*
X118825310Y-134220836D01*
X118804851Y-134242307D01*
X118786185Y-134265260D01*
X118769434Y-134289497D01*
X118754720Y-134314819D01*
X118742167Y-134341029D01*
X118731898Y-134367928D01*
X118724036Y-134395319D01*
X118718704Y-134423004D01*
X118716024Y-134450783D01*
X117719693Y-134450783D01*
X117770360Y-134082954D01*
X117865287Y-133518066D01*
X117971937Y-132976674D01*
X118088601Y-132455508D01*
X118210249Y-131964707D01*
X119356875Y-131964707D01*
X119373161Y-132014777D01*
X119390537Y-132060618D01*
X119408900Y-132102385D01*
X119428148Y-132140233D01*
X119448176Y-132174316D01*
X119468883Y-132204789D01*
X119490165Y-132231806D01*
X119511918Y-132255521D01*
X119534040Y-132276089D01*
X119556428Y-132293664D01*
X119578979Y-132308402D01*
X119601589Y-132320455D01*
X119624156Y-132329979D01*
X119646576Y-132337129D01*
X119668746Y-132342058D01*
X119690564Y-132344921D01*
X119711926Y-132345873D01*
X119732729Y-132345067D01*
X119752871Y-132342659D01*
X119772247Y-132338803D01*
X119790755Y-132333654D01*
X119808292Y-132327365D01*
X119824755Y-132320091D01*
X119840040Y-132311988D01*
X119854045Y-132303208D01*
X119866667Y-132293907D01*
X119877802Y-132284239D01*
X119887347Y-132274359D01*
X119895200Y-132264421D01*
X119901258Y-132254579D01*
X119905416Y-132244988D01*
X119907572Y-132235802D01*
X119908972Y-132188436D01*
X119909737Y-132137898D01*
X119911676Y-132085063D01*
X119913651Y-132058058D01*
X119916597Y-132030808D01*
X119920741Y-132003422D01*
X119926308Y-131976010D01*
X119933525Y-131948681D01*
X119942618Y-131921544D01*
X119953812Y-131894710D01*
X119960268Y-131881440D01*
X119967334Y-131868287D01*
X119975038Y-131855265D01*
X119983409Y-131842387D01*
X119992475Y-131829666D01*
X120002265Y-131817116D01*
X120020093Y-131796763D01*
X120039469Y-131777918D01*
X120060302Y-131760534D01*
X120082501Y-131744565D01*
X120105976Y-131729963D01*
X120130638Y-131716682D01*
X120156396Y-131704675D01*
X120183159Y-131693894D01*
X120239344Y-131675823D01*
X120298470Y-131662095D01*
X120359815Y-131652332D01*
X120422660Y-131646160D01*
X120486282Y-131643201D01*
X120549959Y-131643081D01*
X120612971Y-131645422D01*
X120674595Y-131649849D01*
X120734111Y-131655985D01*
X120790797Y-131663456D01*
X120892794Y-131680894D01*
X121065602Y-131730623D01*
X121161177Y-131760399D01*
X121260051Y-131793472D01*
X121360110Y-131829862D01*
X121459245Y-131869585D01*
X121555342Y-131912661D01*
X121646291Y-131959107D01*
X121689175Y-131983600D01*
X121729979Y-132008942D01*
X121768441Y-132035136D01*
X121804295Y-132062183D01*
X121837279Y-132090087D01*
X121867128Y-132118849D01*
X121893577Y-132148472D01*
X121916364Y-132178958D01*
X121935224Y-132210310D01*
X121949894Y-132242528D01*
X121960108Y-132275617D01*
X121965604Y-132309578D01*
X121966117Y-132344413D01*
X121961383Y-132380124D01*
X121951139Y-132416715D01*
X121935120Y-132454186D01*
X121907358Y-132476724D01*
X121882161Y-132498827D01*
X121859444Y-132520486D01*
X121839120Y-132541690D01*
X121821104Y-132562430D01*
X121805310Y-132582696D01*
X121791651Y-132602477D01*
X121780042Y-132621764D01*
X121770397Y-132640546D01*
X121762629Y-132658814D01*
X121756654Y-132676558D01*
X121752383Y-132693768D01*
X121749733Y-132710433D01*
X121748617Y-132726544D01*
X121748948Y-132742090D01*
X121750641Y-132757063D01*
X121753610Y-132771451D01*
X121757769Y-132785245D01*
X121763032Y-132798434D01*
X121769313Y-132811010D01*
X121776526Y-132822961D01*
X121784584Y-132834278D01*
X121793403Y-132844951D01*
X121802896Y-132854969D01*
X121812977Y-132864324D01*
X121823560Y-132873004D01*
X121834559Y-132881001D01*
X121845888Y-132888303D01*
X121857461Y-132894901D01*
X121869193Y-132900785D01*
X121880997Y-132905945D01*
X121892787Y-132910371D01*
X121913486Y-132916819D01*
X121935529Y-132921962D01*
X121958782Y-132925774D01*
X121983110Y-132928230D01*
X122008381Y-132929303D01*
X122034459Y-132928969D01*
X122061212Y-132927201D01*
X122088506Y-132923974D01*
X122116206Y-132919263D01*
X122144179Y-132913041D01*
X122172292Y-132905284D01*
X122200409Y-132895965D01*
X122228399Y-132885059D01*
X122256126Y-132872540D01*
X122283458Y-132858383D01*
X122310259Y-132842561D01*
X122336397Y-132825051D01*
X122361738Y-132805825D01*
X122386148Y-132784858D01*
X122409492Y-132762125D01*
X122431638Y-132737599D01*
X122452452Y-132711256D01*
X122471799Y-132683070D01*
X122489546Y-132653015D01*
X122505559Y-132621065D01*
X122519705Y-132587195D01*
X122531849Y-132551379D01*
X122541858Y-132513592D01*
X122549598Y-132473808D01*
X122554935Y-132432001D01*
X122557736Y-132388146D01*
X122557866Y-132342217D01*
X122557868Y-132342217D01*
X122557432Y-132329619D01*
X122556791Y-132316874D01*
X122555944Y-132303980D01*
X122554889Y-132290937D01*
X122553624Y-132277743D01*
X122552149Y-132264396D01*
X122550461Y-132250894D01*
X122548560Y-132237237D01*
X122543737Y-132159271D01*
X122530779Y-132084511D01*
X122510228Y-132012908D01*
X122482629Y-131944415D01*
X122448525Y-131878983D01*
X122408460Y-131816566D01*
X122362976Y-131757114D01*
X122312619Y-131700580D01*
X122257931Y-131646917D01*
X122199456Y-131596076D01*
X122137737Y-131548009D01*
X122073318Y-131502669D01*
X122006743Y-131460007D01*
X121938555Y-131419976D01*
X121799515Y-131347614D01*
X121660547Y-131285200D01*
X121525999Y-131232352D01*
X121400220Y-131188685D01*
X121287559Y-131153816D01*
X121118983Y-131108943D01*
X121055060Y-131094666D01*
X120934835Y-131076095D01*
X120801249Y-131061756D01*
X120633520Y-131051938D01*
X120540329Y-131050573D01*
X120442776Y-131052556D01*
X120342253Y-131058628D01*
X120240149Y-131069529D01*
X120137857Y-131085996D01*
X120036767Y-131108771D01*
X119938271Y-131138593D01*
X119843760Y-131176202D01*
X119800750Y-131195997D01*
X119760416Y-131217358D01*
X119722670Y-131240158D01*
X119687424Y-131264273D01*
X119654589Y-131289578D01*
X119624078Y-131315946D01*
X119595802Y-131343253D01*
X119569672Y-131371374D01*
X119545600Y-131400182D01*
X119523498Y-131429554D01*
X119503277Y-131459364D01*
X119484850Y-131489487D01*
X119468128Y-131519796D01*
X119453023Y-131550168D01*
X119439445Y-131580477D01*
X119427308Y-131610597D01*
X119407000Y-131669772D01*
X119391392Y-131726690D01*
X119379777Y-131780350D01*
X119371449Y-131829750D01*
X119361828Y-131911760D01*
X119356875Y-131964707D01*
X118210249Y-131964707D01*
X118213572Y-131951298D01*
X118345142Y-131460773D01*
X118621250Y-130507694D01*
X118795264Y-129929162D01*
X119907212Y-129929162D01*
X119909263Y-129956509D01*
X119914067Y-129984710D01*
X119921647Y-130013607D01*
X119932027Y-130043041D01*
X119945232Y-130072855D01*
X119961286Y-130102890D01*
X119980212Y-130132988D01*
X120002035Y-130162990D01*
X120026778Y-130192737D01*
X120054465Y-130222073D01*
X120085121Y-130250837D01*
X120118769Y-130278873D01*
X120155434Y-130306021D01*
X120195139Y-130332123D01*
X120235369Y-130351009D01*
X120310003Y-130376966D01*
X120540329Y-130441596D01*
X120548368Y-130443852D01*
X120881985Y-130520296D01*
X121282609Y-130593815D01*
X121499222Y-130625575D01*
X121721994Y-130651923D01*
X121947394Y-130671298D01*
X122171892Y-130682138D01*
X122391957Y-130682884D01*
X122604058Y-130671974D01*
X122804664Y-130647849D01*
X122990244Y-130608948D01*
X123017136Y-130594388D01*
X123043947Y-130579351D01*
X123070457Y-130563912D01*
X123096450Y-130548142D01*
X123121708Y-130532114D01*
X123146012Y-130515902D01*
X123169144Y-130499579D01*
X123190887Y-130483217D01*
X123211022Y-130466889D01*
X123229331Y-130450669D01*
X123245597Y-130434630D01*
X123252895Y-130426700D01*
X123259601Y-130418843D01*
X123265686Y-130411068D01*
X123271125Y-130403383D01*
X123275889Y-130395798D01*
X123279952Y-130388322D01*
X123283285Y-130380964D01*
X123285862Y-130373733D01*
X123287656Y-130366638D01*
X123288640Y-130359688D01*
X123289436Y-130351687D01*
X123290119Y-130343609D01*
X123290667Y-130335449D01*
X123291058Y-130327203D01*
X123291129Y-130295569D01*
X123288846Y-130262947D01*
X123283913Y-130229443D01*
X123276035Y-130195164D01*
X123264915Y-130160215D01*
X123250258Y-130124704D01*
X123231767Y-130088738D01*
X123209147Y-130052421D01*
X123182101Y-130015862D01*
X123166826Y-129997525D01*
X123150334Y-129979166D01*
X123132587Y-129960801D01*
X123113549Y-129942441D01*
X123093182Y-129924100D01*
X123071450Y-129905792D01*
X123048316Y-129887530D01*
X123023742Y-129869326D01*
X122997692Y-129851195D01*
X122970128Y-129833150D01*
X122941014Y-129815204D01*
X122910313Y-129797370D01*
X122844000Y-129762093D01*
X122368194Y-129512529D01*
X121799803Y-129205863D01*
X121240716Y-128899188D01*
X120792822Y-128649598D01*
X120754665Y-128627990D01*
X120716824Y-128610300D01*
X120679542Y-128596411D01*
X120643063Y-128586207D01*
X120607630Y-128579569D01*
X120573484Y-128576381D01*
X120540870Y-128576526D01*
X120510030Y-128579887D01*
X120481208Y-128586345D01*
X120454645Y-128595786D01*
X120430586Y-128608090D01*
X120409272Y-128623141D01*
X120390947Y-128640823D01*
X120375855Y-128661017D01*
X120364237Y-128683606D01*
X120356336Y-128708475D01*
X120352397Y-128735505D01*
X120352661Y-128764579D01*
X120357372Y-128795580D01*
X120366772Y-128828391D01*
X120381104Y-128862896D01*
X120400613Y-128898976D01*
X120425539Y-128936515D01*
X120456127Y-128975395D01*
X120492618Y-129015500D01*
X120535258Y-129056712D01*
X120584287Y-129098914D01*
X120639949Y-129141990D01*
X120702487Y-129185821D01*
X120772144Y-129230291D01*
X120849163Y-129275283D01*
X120933787Y-129320679D01*
X120864693Y-129939126D01*
X120697408Y-129883115D01*
X120521513Y-129826724D01*
X120313637Y-129763520D01*
X120270244Y-129748413D01*
X120229172Y-129737010D01*
X120190444Y-129729153D01*
X120154085Y-129724684D01*
X120120119Y-129723444D01*
X120088569Y-129725276D01*
X120059461Y-129730020D01*
X120032817Y-129737519D01*
X120008661Y-129747613D01*
X119987019Y-129760146D01*
X119967913Y-129774957D01*
X119951367Y-129791890D01*
X119937407Y-129810786D01*
X119926055Y-129831486D01*
X119917335Y-129853832D01*
X119911272Y-129877665D01*
X119907890Y-129902828D01*
X119907212Y-129929162D01*
X118795264Y-129929162D01*
X118903262Y-129570109D01*
X119177516Y-128621854D01*
X119273219Y-128267146D01*
X119417470Y-127732504D01*
X119444534Y-127624098D01*
X120564838Y-127624098D01*
X120566394Y-127657162D01*
X120571774Y-127691255D01*
X120573484Y-127697783D01*
X120580906Y-127726107D01*
X120593721Y-127761446D01*
X120610150Y-127797001D01*
X120630120Y-127832501D01*
X120653564Y-127867675D01*
X120680409Y-127902252D01*
X120710587Y-127935961D01*
X120744027Y-127968531D01*
X120780658Y-127999692D01*
X120820411Y-128029171D01*
X120863216Y-128056698D01*
X120909001Y-128082001D01*
X120957698Y-128104811D01*
X121009236Y-128124856D01*
X121949692Y-128421604D01*
X122269664Y-128516912D01*
X122588578Y-128606129D01*
X122888932Y-128681989D01*
X123153225Y-128737221D01*
X123191555Y-128751056D01*
X123229491Y-128760661D01*
X123266852Y-128766232D01*
X123303453Y-128767968D01*
X123339111Y-128766065D01*
X123373642Y-128760719D01*
X123406864Y-128752128D01*
X123438592Y-128740489D01*
X123468644Y-128725999D01*
X123496835Y-128708855D01*
X123522983Y-128689253D01*
X123546904Y-128667391D01*
X123568414Y-128643466D01*
X123587330Y-128617674D01*
X123603469Y-128590213D01*
X123616646Y-128561279D01*
X123626680Y-128531070D01*
X123633386Y-128499782D01*
X123636580Y-128467613D01*
X123636080Y-128434759D01*
X123631702Y-128401417D01*
X123623262Y-128367785D01*
X123610578Y-128334059D01*
X123593464Y-128300437D01*
X123571740Y-128267114D01*
X123545219Y-128234289D01*
X123513720Y-128202158D01*
X123477059Y-128170918D01*
X123435053Y-128140766D01*
X123387517Y-128111899D01*
X123334268Y-128084514D01*
X123275124Y-128058808D01*
X123226162Y-128031336D01*
X123171600Y-128002261D01*
X123050513Y-127941167D01*
X122921531Y-127879251D01*
X122794321Y-127820239D01*
X122583889Y-127725827D01*
X122496558Y-127687733D01*
X122619044Y-127363983D01*
X122665915Y-127244543D01*
X122708714Y-127139784D01*
X122742152Y-127064746D01*
X122753710Y-127043073D01*
X122757909Y-127037020D01*
X122760945Y-127034470D01*
X122767408Y-127032407D01*
X122774459Y-127030922D01*
X122790238Y-127029555D01*
X122808114Y-127030106D01*
X122827919Y-127032310D01*
X122849484Y-127035905D01*
X122872641Y-127040626D01*
X122923062Y-127052396D01*
X122977836Y-127065510D01*
X123035619Y-127077861D01*
X123065219Y-127083092D01*
X123095067Y-127087341D01*
X123124995Y-127090344D01*
X123154835Y-127091840D01*
X123211604Y-127089202D01*
X123266197Y-127085462D01*
X123318642Y-127080658D01*
X123368964Y-127074830D01*
X123417191Y-127068016D01*
X123463348Y-127060255D01*
X123507463Y-127051585D01*
X123549562Y-127042045D01*
X123589672Y-127031674D01*
X123627818Y-127020511D01*
X123664028Y-127008594D01*
X123698328Y-126995963D01*
X123730745Y-126982655D01*
X123761305Y-126968709D01*
X123790035Y-126954165D01*
X123816962Y-126939061D01*
X123842111Y-126923436D01*
X123865510Y-126907328D01*
X123887185Y-126890777D01*
X123907162Y-126873820D01*
X123925469Y-126856497D01*
X123942131Y-126838846D01*
X123957175Y-126820906D01*
X123970629Y-126802716D01*
X123982517Y-126784315D01*
X123992868Y-126765741D01*
X124001707Y-126747032D01*
X124009060Y-126728229D01*
X124014956Y-126709369D01*
X124019419Y-126690491D01*
X124022478Y-126671634D01*
X124024157Y-126652837D01*
X124024527Y-126638283D01*
X124024092Y-126623807D01*
X124022864Y-126609427D01*
X124020855Y-126595162D01*
X124018079Y-126581029D01*
X124014547Y-126567047D01*
X124010272Y-126553234D01*
X124005267Y-126539608D01*
X123999545Y-126526188D01*
X123993116Y-126512991D01*
X123985995Y-126500036D01*
X123978194Y-126487341D01*
X123969725Y-126474924D01*
X123960600Y-126462804D01*
X123950833Y-126450998D01*
X123940435Y-126439524D01*
X123929420Y-126428402D01*
X123917799Y-126417649D01*
X123905585Y-126407283D01*
X123892791Y-126397322D01*
X123879430Y-126387786D01*
X123865513Y-126378691D01*
X123851053Y-126370056D01*
X123836063Y-126361899D01*
X123820555Y-126354239D01*
X123804542Y-126347094D01*
X123788036Y-126340481D01*
X123771049Y-126334420D01*
X123753595Y-126328928D01*
X123735686Y-126324023D01*
X123717334Y-126319724D01*
X123698552Y-126316048D01*
X123395129Y-126258733D01*
X123210835Y-126220064D01*
X123005981Y-126173584D01*
X122781439Y-126118443D01*
X122538080Y-126053788D01*
X122276776Y-125978767D01*
X121998398Y-125892529D01*
X121888233Y-125848672D01*
X121786173Y-125812538D01*
X121692015Y-125783761D01*
X121605555Y-125761974D01*
X121526590Y-125746810D01*
X121454917Y-125737903D01*
X121390332Y-125734887D01*
X121332633Y-125737394D01*
X121281615Y-125745059D01*
X121237076Y-125757514D01*
X121198812Y-125774394D01*
X121166620Y-125795332D01*
X121140297Y-125819961D01*
X121119638Y-125847914D01*
X121104442Y-125878826D01*
X121094504Y-125912329D01*
X121089622Y-125948058D01*
X121089591Y-125985645D01*
X121094209Y-126024724D01*
X121103272Y-126064929D01*
X121116577Y-126105892D01*
X121133921Y-126147249D01*
X121155101Y-126188631D01*
X121179912Y-126229672D01*
X121208152Y-126270007D01*
X121239617Y-126309267D01*
X121274104Y-126347088D01*
X121311410Y-126383102D01*
X121351332Y-126416942D01*
X121393665Y-126448243D01*
X121438207Y-126476638D01*
X121484755Y-126501759D01*
X121693851Y-126610895D01*
X121881181Y-126706976D01*
X122067851Y-126801411D01*
X121768023Y-127583558D01*
X121553101Y-127544021D01*
X121343184Y-127503259D01*
X121117173Y-127456196D01*
X121048013Y-127435934D01*
X120983798Y-127421037D01*
X120924460Y-127411235D01*
X120869927Y-127406257D01*
X120820130Y-127405830D01*
X120774999Y-127409686D01*
X120734462Y-127417552D01*
X120698450Y-127429157D01*
X120666894Y-127444231D01*
X120639722Y-127462502D01*
X120616864Y-127483700D01*
X120598251Y-127507553D01*
X120583812Y-127533790D01*
X120573477Y-127562141D01*
X120567176Y-127592333D01*
X120564838Y-127624098D01*
X119444534Y-127624098D01*
X119613623Y-126946811D01*
X119695175Y-126586827D01*
X119765659Y-126245546D01*
X119825034Y-125920567D01*
X119873260Y-125609484D01*
X119910299Y-125309896D01*
X119936109Y-125019398D01*
X119950653Y-124735586D01*
X119953890Y-124456059D01*
X119945780Y-124178412D01*
X119926285Y-123900242D01*
X119895363Y-123619145D01*
X119852976Y-123332719D01*
X119852563Y-123329609D01*
X119852356Y-123326535D01*
X119852351Y-123323503D01*
X119852541Y-123320520D01*
X119852918Y-123317590D01*
X119853478Y-123314720D01*
X119854213Y-123311916D01*
X119855117Y-123309183D01*
X119856184Y-123306528D01*
X119857407Y-123303956D01*
X119858780Y-123301474D01*
X119860296Y-123299087D01*
X119861949Y-123296801D01*
X119863733Y-123294623D01*
X119865642Y-123292557D01*
X119867668Y-123290610D01*
X119869805Y-123288788D01*
X119872048Y-123287097D01*
X119874389Y-123285542D01*
X119876822Y-123284130D01*
X119879341Y-123282866D01*
X119881940Y-123281757D01*
X119884611Y-123280808D01*
X119887349Y-123280025D01*
X119890148Y-123279414D01*
X119893000Y-123278981D01*
X119895899Y-123278732D01*
X119898840Y-123278673D01*
X119901815Y-123278810D01*
G37*
D10*
X183150000Y-79695000D02*
X143150000Y-79695000D01*
D11*
G36*
X121149835Y-142082073D02*
G01*
X121175988Y-142127248D01*
X121206118Y-142185124D01*
X121221506Y-142217856D01*
X121236486Y-142252601D01*
X121250590Y-142288972D01*
X121263351Y-142326582D01*
X121274301Y-142365043D01*
X121282973Y-142403967D01*
X121288899Y-142442969D01*
X121291611Y-142481660D01*
X121291592Y-142501673D01*
X121290495Y-142521439D01*
X121288254Y-142540902D01*
X121284800Y-142560006D01*
X121282598Y-142569407D01*
X121280068Y-142578696D01*
X121277201Y-142587868D01*
X121273990Y-142596916D01*
X121270425Y-142605833D01*
X121266499Y-142614611D01*
X121262202Y-142623244D01*
X121257527Y-142631724D01*
X121252465Y-142640045D01*
X121247009Y-142648201D01*
X121241148Y-142656183D01*
X121234876Y-142663985D01*
X121228183Y-142671600D01*
X121221062Y-142679021D01*
X121213503Y-142686241D01*
X121205499Y-142693254D01*
X121197041Y-142700051D01*
X121188121Y-142706627D01*
X121178731Y-142712974D01*
X121168861Y-142719086D01*
X121158504Y-142724955D01*
X121147651Y-142730574D01*
X121136294Y-142735937D01*
X121124425Y-142741036D01*
X121089814Y-142752953D01*
X121056543Y-142760031D01*
X121024589Y-142762563D01*
X120993928Y-142760842D01*
X120964536Y-142755160D01*
X120936391Y-142745812D01*
X120909469Y-142733090D01*
X120883748Y-142717288D01*
X120859203Y-142698699D01*
X120835812Y-142677615D01*
X120813551Y-142654330D01*
X120792398Y-142629137D01*
X120772328Y-142602329D01*
X120753319Y-142574199D01*
X120718390Y-142515147D01*
X120687424Y-142454326D01*
X120660236Y-142394080D01*
X120616450Y-142284696D01*
X120585542Y-142205755D01*
X120574454Y-142183564D01*
X120569919Y-142177814D01*
X120566027Y-142176018D01*
X121124425Y-142042214D01*
X121149835Y-142082073D01*
G37*
G36*
X116941398Y-122485636D02*
G01*
X117244417Y-122507174D01*
X117672744Y-122551291D01*
X118205798Y-122622818D01*
X118505167Y-122670372D01*
X118823000Y-122726591D01*
X119156725Y-122792079D01*
X119503770Y-122867442D01*
X119861562Y-122953282D01*
X120227528Y-123050205D01*
X120599096Y-123158814D01*
X120973694Y-123279713D01*
X121714024Y-123547373D01*
X122421218Y-123831558D01*
X123076139Y-124117563D01*
X123659645Y-124390680D01*
X124152598Y-124636200D01*
X124535856Y-124839417D01*
X124790281Y-124985624D01*
X124896733Y-125060113D01*
X124899059Y-125062329D01*
X124901701Y-125065088D01*
X124905094Y-125068937D01*
X124909060Y-125073869D01*
X124913424Y-125079876D01*
X124915699Y-125083281D01*
X124918007Y-125086951D01*
X124920326Y-125090886D01*
X124922634Y-125095085D01*
X124924908Y-125099547D01*
X124927127Y-125104271D01*
X124929269Y-125109256D01*
X124931310Y-125114502D01*
X124933230Y-125120006D01*
X124935006Y-125125769D01*
X124936617Y-125131789D01*
X124938039Y-125138065D01*
X124939251Y-125144597D01*
X124940230Y-125151383D01*
X124940956Y-125158423D01*
X124941404Y-125165715D01*
X124941555Y-125173258D01*
X124941384Y-125181052D01*
X124940871Y-125189096D01*
X124939993Y-125197388D01*
X124938660Y-125205480D01*
X124936809Y-125212935D01*
X124934465Y-125219770D01*
X124931652Y-125226005D01*
X124928392Y-125231657D01*
X124924710Y-125236745D01*
X124920628Y-125241288D01*
X124916170Y-125245303D01*
X124911360Y-125248809D01*
X124906221Y-125251825D01*
X124900777Y-125254368D01*
X124895051Y-125256458D01*
X124889067Y-125258112D01*
X124882848Y-125259349D01*
X124876418Y-125260187D01*
X124869799Y-125260644D01*
X124863016Y-125260740D01*
X124856093Y-125260491D01*
X124849052Y-125259918D01*
X124841917Y-125259037D01*
X124834712Y-125257868D01*
X124827459Y-125256428D01*
X124812908Y-125252812D01*
X124798451Y-125248335D01*
X124784276Y-125243143D01*
X124770572Y-125237385D01*
X124757525Y-125231206D01*
X124414847Y-125068941D01*
X124050048Y-124903645D01*
X123579018Y-124698698D01*
X123018811Y-124466442D01*
X122710597Y-124343930D01*
X122386485Y-124219218D01*
X122048606Y-124093851D01*
X121699094Y-123969371D01*
X121340079Y-123847320D01*
X120973694Y-123729241D01*
X120603270Y-123621267D01*
X120232795Y-123527803D01*
X119865382Y-123447809D01*
X119504145Y-123380244D01*
X119152196Y-123324066D01*
X118812650Y-123278235D01*
X118183219Y-123213448D01*
X117640759Y-123177556D01*
X117210175Y-123162230D01*
X116784266Y-123159962D01*
X116784266Y-122481843D01*
X116941398Y-122485636D01*
G37*
D10*
X183150000Y-79195000D02*
X183150000Y-79695000D01*
D11*
G36*
X122486714Y-130146226D02*
G01*
X122487987Y-130148441D01*
X122489151Y-130150622D01*
X122490209Y-130152771D01*
X122491161Y-130154887D01*
X122492007Y-130156971D01*
X122492749Y-130159023D01*
X122493386Y-130161042D01*
X122493921Y-130163030D01*
X122494354Y-130164987D01*
X122494685Y-130166913D01*
X122494916Y-130168807D01*
X122495048Y-130170671D01*
X122495080Y-130172505D01*
X122495014Y-130174309D01*
X122494851Y-130176082D01*
X122494591Y-130177827D01*
X122489648Y-130189963D01*
X122479661Y-130200497D01*
X122464972Y-130209509D01*
X122445922Y-130217079D01*
X122422852Y-130223286D01*
X122396103Y-130228210D01*
X122332933Y-130234528D01*
X122259138Y-130236672D01*
X122177448Y-130235281D01*
X122090590Y-130230992D01*
X122001292Y-130224445D01*
X121826291Y-130207127D01*
X121674269Y-130188434D01*
X121526461Y-130167351D01*
X121630551Y-129557671D01*
X122486714Y-130146226D01*
G37*
D10*
G36*
X122234856Y-93066294D02*
G01*
X122199385Y-93591729D01*
X122098305Y-94049130D01*
X121936880Y-94449014D01*
X121769999Y-94727165D01*
X121573473Y-94967144D01*
X121346124Y-95172425D01*
X121085389Y-95345080D01*
X120804488Y-95478147D01*
X120496294Y-95575355D01*
X120156886Y-95635627D01*
X119781742Y-95656489D01*
X119406658Y-95635592D01*
X119067942Y-95575268D01*
X118760976Y-95478056D01*
X118481760Y-95345080D01*
X118223037Y-95172419D01*
X117998106Y-94967169D01*
X117804364Y-94727217D01*
X117640648Y-94449014D01*
X117483320Y-94049552D01*
X117384653Y-93592118D01*
X117350362Y-93071789D01*
X117877564Y-93071789D01*
X117900598Y-93455858D01*
X117965551Y-93784040D01*
X118067785Y-94064666D01*
X118204935Y-94304764D01*
X118377041Y-94509769D01*
X118640555Y-94719501D01*
X118954688Y-94873473D01*
X119329551Y-94970892D01*
X119778384Y-95005582D01*
X120230424Y-94970756D01*
X120609367Y-94872806D01*
X120928190Y-94717777D01*
X121196824Y-94506411D01*
X121373504Y-94299383D01*
X121513766Y-94058346D01*
X121617950Y-93778131D01*
X121683942Y-93451969D01*
X121707292Y-93071789D01*
X121707292Y-92191905D01*
X117877564Y-92191905D01*
X117877564Y-93071789D01*
X117350362Y-93071789D01*
X117350000Y-93066294D01*
X117350000Y-91547103D01*
X122234856Y-91547103D01*
X122234856Y-93066294D01*
G37*
G36*
X121804989Y-96815116D02*
G01*
X121837036Y-96645633D01*
X121932606Y-96504928D01*
X122074125Y-96410084D01*
X122244626Y-96378227D01*
X122415338Y-96410108D01*
X122556646Y-96504928D01*
X122652217Y-96645633D01*
X122684263Y-96815116D01*
X122652421Y-96977927D01*
X122556646Y-97114619D01*
X122415600Y-97206822D01*
X122244626Y-97237962D01*
X122073863Y-97206845D01*
X121932606Y-97114619D01*
X121836832Y-96977927D01*
X121804989Y-96815116D01*
G37*
G36*
X121199267Y-97120725D02*
G01*
X117350000Y-97120725D01*
X117350000Y-96475924D01*
X121199267Y-96475924D01*
X121199267Y-97120725D01*
G37*
G36*
X119679364Y-97988812D02*
G01*
X120022199Y-98068990D01*
X120327625Y-98198447D01*
X120605120Y-98378783D01*
X120834049Y-98595779D01*
X121019138Y-98852102D01*
X121154964Y-99137892D01*
X121236958Y-99444872D01*
X121264907Y-99778393D01*
X121239292Y-100108126D01*
X121165839Y-100397077D01*
X121047226Y-100652172D01*
X120885436Y-100883291D01*
X120703289Y-101065496D01*
X120499511Y-101204466D01*
X121199267Y-101204466D01*
X121199267Y-101855373D01*
X117350000Y-101855373D01*
X117350000Y-101204466D01*
X118063799Y-101204466D01*
X117857382Y-101061041D01*
X117673404Y-100875268D01*
X117510589Y-100641791D01*
X117390757Y-100384360D01*
X117316976Y-100096334D01*
X117301889Y-99904788D01*
X117845507Y-99904788D01*
X117865000Y-100137639D01*
X117922441Y-100354255D01*
X118018004Y-100558138D01*
X118148722Y-100740882D01*
X118313948Y-100897576D01*
X118517786Y-101029832D01*
X118742290Y-101124917D01*
X118995224Y-101183911D01*
X119281960Y-101204466D01*
X119568473Y-101183848D01*
X119819902Y-101124802D01*
X120041861Y-101029832D01*
X120243557Y-100897776D01*
X120407741Y-100741103D01*
X120538285Y-100558138D01*
X120633848Y-100354255D01*
X120691288Y-100137639D01*
X120710781Y-99904788D01*
X120691585Y-99671830D01*
X120635177Y-99456350D01*
X120541643Y-99254797D01*
X120413483Y-99074240D01*
X120250623Y-98918637D01*
X120048883Y-98786461D01*
X119826921Y-98691501D01*
X119575396Y-98632451D01*
X119288677Y-98611828D01*
X118997408Y-98632489D01*
X118742360Y-98691583D01*
X118517786Y-98786461D01*
X118313666Y-98918690D01*
X118148475Y-99074320D01*
X118018004Y-99254797D01*
X117922544Y-99456537D01*
X117865057Y-99671993D01*
X117845507Y-99904788D01*
X117301889Y-99904788D01*
X117291381Y-99771371D01*
X117320119Y-99438458D01*
X117404410Y-99132791D01*
X117544173Y-98848743D01*
X117733698Y-98594935D01*
X117968297Y-98378927D01*
X118253087Y-98198447D01*
X118565284Y-98068436D01*
X118909561Y-97988519D01*
X119292035Y-97960921D01*
X119679364Y-97988812D01*
G37*
G36*
X122547487Y-103588276D02*
G01*
X117350000Y-103588276D01*
X117350000Y-102943475D01*
X122547487Y-102943475D01*
X122547487Y-103588276D01*
G37*
G36*
X122234856Y-106238311D02*
G01*
X122205872Y-106654291D01*
X122125534Y-106993757D01*
X122000802Y-107270433D01*
X121834298Y-107495245D01*
X121620299Y-107683175D01*
X121380657Y-107816299D01*
X121110187Y-107897761D01*
X120801456Y-107926029D01*
X120503125Y-107898996D01*
X120238510Y-107820720D01*
X120001027Y-107692274D01*
X119786017Y-107510511D01*
X119619469Y-107292775D01*
X119493674Y-107018050D01*
X119411872Y-106673552D01*
X119382100Y-106243196D01*
X119382100Y-106242585D01*
X119909665Y-106242585D01*
X119939850Y-106589202D01*
X120020115Y-106841989D01*
X120141085Y-107023857D01*
X120310906Y-107159737D01*
X120526362Y-107244577D01*
X120801151Y-107275122D01*
X121086354Y-107244504D01*
X121304289Y-107160551D01*
X121470945Y-107027930D01*
X121595103Y-106841375D01*
X121676801Y-106586654D01*
X121707292Y-106242585D01*
X121707292Y-105307745D01*
X119909665Y-105307745D01*
X119909665Y-106242585D01*
X119382100Y-106242585D01*
X119382100Y-105307745D01*
X117340230Y-105307745D01*
X117340230Y-104662944D01*
X122234856Y-104662944D01*
X122234856Y-106238311D01*
G37*
G36*
X119679364Y-108486370D02*
G01*
X120022199Y-108566547D01*
X120327625Y-108696004D01*
X120605120Y-108876340D01*
X120834049Y-109093336D01*
X121019138Y-109349659D01*
X121154964Y-109635450D01*
X121236958Y-109942429D01*
X121264907Y-110275950D01*
X121239292Y-110605683D01*
X121165839Y-110894634D01*
X121047226Y-111149729D01*
X120885436Y-111380849D01*
X120703289Y-111563054D01*
X120499511Y-111702023D01*
X121199267Y-111702023D01*
X121199267Y-112352930D01*
X117350000Y-112352930D01*
X117350000Y-111702023D01*
X118063799Y-111702023D01*
X117857382Y-111558598D01*
X117673404Y-111372826D01*
X117510589Y-111139349D01*
X117390757Y-110881918D01*
X117316976Y-110593892D01*
X117301889Y-110402346D01*
X117845507Y-110402346D01*
X117865000Y-110635196D01*
X117922441Y-110851813D01*
X118018004Y-111055696D01*
X118148722Y-111238439D01*
X118313948Y-111395134D01*
X118517786Y-111527390D01*
X118742290Y-111622475D01*
X118995224Y-111681468D01*
X119281960Y-111702023D01*
X119568473Y-111681405D01*
X119819902Y-111622359D01*
X120041861Y-111527390D01*
X120243557Y-111395334D01*
X120407741Y-111238660D01*
X120538285Y-111055696D01*
X120633848Y-110851813D01*
X120691288Y-110635196D01*
X120710781Y-110402346D01*
X120691585Y-110169388D01*
X120635177Y-109953907D01*
X120541643Y-109752355D01*
X120413483Y-109571797D01*
X120250623Y-109416194D01*
X120048883Y-109284019D01*
X119826921Y-109189059D01*
X119575396Y-109130008D01*
X119288677Y-109109385D01*
X118997408Y-109130046D01*
X118742360Y-109189141D01*
X118517786Y-109284019D01*
X118313666Y-109416247D01*
X118148475Y-109571877D01*
X118018004Y-109752355D01*
X117922544Y-109954094D01*
X117865057Y-110169551D01*
X117845507Y-110402346D01*
X117301889Y-110402346D01*
X117291381Y-110268928D01*
X117320119Y-109936016D01*
X117404410Y-109630349D01*
X117544173Y-109346301D01*
X117733698Y-109092493D01*
X117968297Y-108876485D01*
X118253087Y-108696004D01*
X118565284Y-108565994D01*
X118909561Y-108486077D01*
X119292035Y-108458478D01*
X119679364Y-108486370D01*
G37*
G36*
X119679364Y-113214911D02*
G01*
X120022199Y-113295089D01*
X120327625Y-113424546D01*
X120605120Y-113604882D01*
X120834049Y-113821878D01*
X121019138Y-114078201D01*
X121154717Y-114364086D01*
X121236833Y-114673325D01*
X121264907Y-115011514D01*
X121241586Y-115304642D01*
X121172606Y-115580682D01*
X121057606Y-115843466D01*
X120901804Y-116083993D01*
X120720907Y-116277960D01*
X120513555Y-116430565D01*
X122547487Y-116430565D01*
X122547487Y-117081472D01*
X117350000Y-117081472D01*
X117350000Y-116430565D01*
X118070821Y-116430565D01*
X117859793Y-116286868D01*
X117673569Y-116102054D01*
X117510589Y-115871249D01*
X117390876Y-115616151D01*
X117317041Y-115329421D01*
X117301363Y-115130887D01*
X117845507Y-115130887D01*
X117865000Y-115363738D01*
X117922441Y-115580354D01*
X118018004Y-115784237D01*
X118148722Y-115966981D01*
X118313948Y-116123675D01*
X118517786Y-116255931D01*
X118742290Y-116351016D01*
X118995224Y-116410010D01*
X119281960Y-116430565D01*
X119568473Y-116409947D01*
X119819902Y-116350901D01*
X120041861Y-116255931D01*
X120243557Y-116123875D01*
X120407741Y-115967202D01*
X120538285Y-115784237D01*
X120633848Y-115580354D01*
X120691288Y-115363738D01*
X120710781Y-115130887D01*
X120691585Y-114897929D01*
X120635177Y-114682449D01*
X120541643Y-114480896D01*
X120413483Y-114300339D01*
X120250623Y-114144736D01*
X120048883Y-114012561D01*
X119826921Y-113917600D01*
X119575396Y-113858550D01*
X119288677Y-113837927D01*
X118997408Y-113858588D01*
X118742360Y-113917682D01*
X118517786Y-114012561D01*
X118313666Y-114144789D01*
X118148475Y-114300419D01*
X118018004Y-114480896D01*
X117922544Y-114682636D01*
X117865057Y-114898092D01*
X117845507Y-115130887D01*
X117301363Y-115130887D01*
X117291381Y-115004492D01*
X117320066Y-114671320D01*
X117404315Y-114364390D01*
X117544173Y-114078201D01*
X117733913Y-113822298D01*
X117968539Y-113605222D01*
X118253087Y-113424546D01*
X118565284Y-113294535D01*
X118909561Y-113214618D01*
X119292035Y-113187020D01*
X119679364Y-113214911D01*
G37*
X160677255Y-73564819D02*
X160867731Y-73564819D01*
X160867731Y-73564819D02*
X160962969Y-73612438D01*
X160962969Y-73612438D02*
X161058207Y-73707676D01*
X161058207Y-73707676D02*
X161105826Y-73898152D01*
X161105826Y-73898152D02*
X161105826Y-74231485D01*
X161105826Y-74231485D02*
X161058207Y-74421961D01*
X161058207Y-74421961D02*
X160962969Y-74517200D01*
X160962969Y-74517200D02*
X160867731Y-74564819D01*
X160867731Y-74564819D02*
X160677255Y-74564819D01*
X160677255Y-74564819D02*
X160582017Y-74517200D01*
X160582017Y-74517200D02*
X160486779Y-74421961D01*
X160486779Y-74421961D02*
X160439160Y-74231485D01*
X160439160Y-74231485D02*
X160439160Y-73898152D01*
X160439160Y-73898152D02*
X160486779Y-73707676D01*
X160486779Y-73707676D02*
X160582017Y-73612438D01*
X160582017Y-73612438D02*
X160677255Y-73564819D01*
X162010588Y-74564819D02*
X161534398Y-74564819D01*
X161534398Y-74564819D02*
X161534398Y-73564819D01*
X162343922Y-74041009D02*
X162677255Y-74041009D01*
X162820112Y-74564819D02*
X162343922Y-74564819D01*
X162343922Y-74564819D02*
X162343922Y-73564819D01*
X162343922Y-73564819D02*
X162820112Y-73564819D01*
X163248684Y-74564819D02*
X163248684Y-73564819D01*
X163248684Y-73564819D02*
X163486779Y-73564819D01*
X163486779Y-73564819D02*
X163629636Y-73612438D01*
X163629636Y-73612438D02*
X163724874Y-73707676D01*
X163724874Y-73707676D02*
X163772493Y-73802914D01*
X163772493Y-73802914D02*
X163820112Y-73993390D01*
X163820112Y-73993390D02*
X163820112Y-74136247D01*
X163820112Y-74136247D02*
X163772493Y-74326723D01*
X163772493Y-74326723D02*
X163724874Y-74421961D01*
X163724874Y-74421961D02*
X163629636Y-74517200D01*
X163629636Y-74517200D02*
X163486779Y-74564819D01*
X163486779Y-74564819D02*
X163248684Y-74564819D01*
X170626667Y-111768200D02*
X170769524Y-111815819D01*
X170769524Y-111815819D02*
X171007619Y-111815819D01*
X171007619Y-111815819D02*
X171102857Y-111768200D01*
X171102857Y-111768200D02*
X171150476Y-111720580D01*
X171150476Y-111720580D02*
X171198095Y-111625342D01*
X171198095Y-111625342D02*
X171198095Y-111530104D01*
X171198095Y-111530104D02*
X171150476Y-111434866D01*
X171150476Y-111434866D02*
X171102857Y-111387247D01*
X171102857Y-111387247D02*
X171007619Y-111339628D01*
X171007619Y-111339628D02*
X170817143Y-111292009D01*
X170817143Y-111292009D02*
X170721905Y-111244390D01*
X170721905Y-111244390D02*
X170674286Y-111196771D01*
X170674286Y-111196771D02*
X170626667Y-111101533D01*
X170626667Y-111101533D02*
X170626667Y-111006295D01*
X170626667Y-111006295D02*
X170674286Y-110911057D01*
X170674286Y-110911057D02*
X170721905Y-110863438D01*
X170721905Y-110863438D02*
X170817143Y-110815819D01*
X170817143Y-110815819D02*
X171055238Y-110815819D01*
X171055238Y-110815819D02*
X171198095Y-110863438D01*
X171531429Y-110815819D02*
X171769524Y-111815819D01*
X171769524Y-111815819D02*
X171960000Y-111101533D01*
X171960000Y-111101533D02*
X172150476Y-111815819D01*
X172150476Y-111815819D02*
X172388572Y-110815819D01*
X173245714Y-110815819D02*
X172769524Y-110815819D01*
X172769524Y-110815819D02*
X172721905Y-111292009D01*
X172721905Y-111292009D02*
X172769524Y-111244390D01*
X172769524Y-111244390D02*
X172864762Y-111196771D01*
X172864762Y-111196771D02*
X173102857Y-111196771D01*
X173102857Y-111196771D02*
X173198095Y-111244390D01*
X173198095Y-111244390D02*
X173245714Y-111292009D01*
X173245714Y-111292009D02*
X173293333Y-111387247D01*
X173293333Y-111387247D02*
X173293333Y-111625342D01*
X173293333Y-111625342D02*
X173245714Y-111720580D01*
X173245714Y-111720580D02*
X173198095Y-111768200D01*
X173198095Y-111768200D02*
X173102857Y-111815819D01*
X173102857Y-111815819D02*
X172864762Y-111815819D01*
X172864762Y-111815819D02*
X172769524Y-111768200D01*
X172769524Y-111768200D02*
X172721905Y-111720580D01*
X130681905Y-116177319D02*
X130681905Y-115177319D01*
X130681905Y-115177319D02*
X130920000Y-115177319D01*
X130920000Y-115177319D02*
X131062857Y-115224938D01*
X131062857Y-115224938D02*
X131158095Y-115320176D01*
X131158095Y-115320176D02*
X131205714Y-115415414D01*
X131205714Y-115415414D02*
X131253333Y-115605890D01*
X131253333Y-115605890D02*
X131253333Y-115748747D01*
X131253333Y-115748747D02*
X131205714Y-115939223D01*
X131205714Y-115939223D02*
X131158095Y-116034461D01*
X131158095Y-116034461D02*
X131062857Y-116129700D01*
X131062857Y-116129700D02*
X130920000Y-116177319D01*
X130920000Y-116177319D02*
X130681905Y-116177319D01*
X132158095Y-115177319D02*
X131681905Y-115177319D01*
X131681905Y-115177319D02*
X131634286Y-115653509D01*
X131634286Y-115653509D02*
X131681905Y-115605890D01*
X131681905Y-115605890D02*
X131777143Y-115558271D01*
X131777143Y-115558271D02*
X132015238Y-115558271D01*
X132015238Y-115558271D02*
X132110476Y-115605890D01*
X132110476Y-115605890D02*
X132158095Y-115653509D01*
X132158095Y-115653509D02*
X132205714Y-115748747D01*
X132205714Y-115748747D02*
X132205714Y-115986842D01*
X132205714Y-115986842D02*
X132158095Y-116082080D01*
X132158095Y-116082080D02*
X132110476Y-116129700D01*
X132110476Y-116129700D02*
X132015238Y-116177319D01*
X132015238Y-116177319D02*
X131777143Y-116177319D01*
X131777143Y-116177319D02*
X131681905Y-116129700D01*
X131681905Y-116129700D02*
X131634286Y-116082080D01*
X134351905Y-118361604D02*
X134828095Y-118361604D01*
X134256667Y-118647319D02*
X134590000Y-117647319D01*
X134590000Y-117647319D02*
X134923333Y-118647319D01*
X190126667Y-111768200D02*
X190269524Y-111815819D01*
X190269524Y-111815819D02*
X190507619Y-111815819D01*
X190507619Y-111815819D02*
X190602857Y-111768200D01*
X190602857Y-111768200D02*
X190650476Y-111720580D01*
X190650476Y-111720580D02*
X190698095Y-111625342D01*
X190698095Y-111625342D02*
X190698095Y-111530104D01*
X190698095Y-111530104D02*
X190650476Y-111434866D01*
X190650476Y-111434866D02*
X190602857Y-111387247D01*
X190602857Y-111387247D02*
X190507619Y-111339628D01*
X190507619Y-111339628D02*
X190317143Y-111292009D01*
X190317143Y-111292009D02*
X190221905Y-111244390D01*
X190221905Y-111244390D02*
X190174286Y-111196771D01*
X190174286Y-111196771D02*
X190126667Y-111101533D01*
X190126667Y-111101533D02*
X190126667Y-111006295D01*
X190126667Y-111006295D02*
X190174286Y-110911057D01*
X190174286Y-110911057D02*
X190221905Y-110863438D01*
X190221905Y-110863438D02*
X190317143Y-110815819D01*
X190317143Y-110815819D02*
X190555238Y-110815819D01*
X190555238Y-110815819D02*
X190698095Y-110863438D01*
X191031429Y-110815819D02*
X191269524Y-111815819D01*
X191269524Y-111815819D02*
X191460000Y-111101533D01*
X191460000Y-111101533D02*
X191650476Y-111815819D01*
X191650476Y-111815819D02*
X191888572Y-110815819D01*
X192698095Y-110815819D02*
X192507619Y-110815819D01*
X192507619Y-110815819D02*
X192412381Y-110863438D01*
X192412381Y-110863438D02*
X192364762Y-110911057D01*
X192364762Y-110911057D02*
X192269524Y-111053914D01*
X192269524Y-111053914D02*
X192221905Y-111244390D01*
X192221905Y-111244390D02*
X192221905Y-111625342D01*
X192221905Y-111625342D02*
X192269524Y-111720580D01*
X192269524Y-111720580D02*
X192317143Y-111768200D01*
X192317143Y-111768200D02*
X192412381Y-111815819D01*
X192412381Y-111815819D02*
X192602857Y-111815819D01*
X192602857Y-111815819D02*
X192698095Y-111768200D01*
X192698095Y-111768200D02*
X192745714Y-111720580D01*
X192745714Y-111720580D02*
X192793333Y-111625342D01*
X192793333Y-111625342D02*
X192793333Y-111387247D01*
X192793333Y-111387247D02*
X192745714Y-111292009D01*
X192745714Y-111292009D02*
X192698095Y-111244390D01*
X192698095Y-111244390D02*
X192602857Y-111196771D01*
X192602857Y-111196771D02*
X192412381Y-111196771D01*
X192412381Y-111196771D02*
X192317143Y-111244390D01*
X192317143Y-111244390D02*
X192269524Y-111292009D01*
X192269524Y-111292009D02*
X192221905Y-111387247D01*
X151126667Y-92268200D02*
X151269524Y-92315819D01*
X151269524Y-92315819D02*
X151507619Y-92315819D01*
X151507619Y-92315819D02*
X151602857Y-92268200D01*
X151602857Y-92268200D02*
X151650476Y-92220580D01*
X151650476Y-92220580D02*
X151698095Y-92125342D01*
X151698095Y-92125342D02*
X151698095Y-92030104D01*
X151698095Y-92030104D02*
X151650476Y-91934866D01*
X151650476Y-91934866D02*
X151602857Y-91887247D01*
X151602857Y-91887247D02*
X151507619Y-91839628D01*
X151507619Y-91839628D02*
X151317143Y-91792009D01*
X151317143Y-91792009D02*
X151221905Y-91744390D01*
X151221905Y-91744390D02*
X151174286Y-91696771D01*
X151174286Y-91696771D02*
X151126667Y-91601533D01*
X151126667Y-91601533D02*
X151126667Y-91506295D01*
X151126667Y-91506295D02*
X151174286Y-91411057D01*
X151174286Y-91411057D02*
X151221905Y-91363438D01*
X151221905Y-91363438D02*
X151317143Y-91315819D01*
X151317143Y-91315819D02*
X151555238Y-91315819D01*
X151555238Y-91315819D02*
X151698095Y-91363438D01*
X152031429Y-91315819D02*
X152269524Y-92315819D01*
X152269524Y-92315819D02*
X152460000Y-91601533D01*
X152460000Y-91601533D02*
X152650476Y-92315819D01*
X152650476Y-92315819D02*
X152888572Y-91315819D01*
X153793333Y-92315819D02*
X153221905Y-92315819D01*
X153507619Y-92315819D02*
X153507619Y-91315819D01*
X153507619Y-91315819D02*
X153412381Y-91458676D01*
X153412381Y-91458676D02*
X153317143Y-91553914D01*
X153317143Y-91553914D02*
X153221905Y-91601533D01*
X170626667Y-131268200D02*
X170769524Y-131315819D01*
X170769524Y-131315819D02*
X171007619Y-131315819D01*
X171007619Y-131315819D02*
X171102857Y-131268200D01*
X171102857Y-131268200D02*
X171150476Y-131220580D01*
X171150476Y-131220580D02*
X171198095Y-131125342D01*
X171198095Y-131125342D02*
X171198095Y-131030104D01*
X171198095Y-131030104D02*
X171150476Y-130934866D01*
X171150476Y-130934866D02*
X171102857Y-130887247D01*
X171102857Y-130887247D02*
X171007619Y-130839628D01*
X171007619Y-130839628D02*
X170817143Y-130792009D01*
X170817143Y-130792009D02*
X170721905Y-130744390D01*
X170721905Y-130744390D02*
X170674286Y-130696771D01*
X170674286Y-130696771D02*
X170626667Y-130601533D01*
X170626667Y-130601533D02*
X170626667Y-130506295D01*
X170626667Y-130506295D02*
X170674286Y-130411057D01*
X170674286Y-130411057D02*
X170721905Y-130363438D01*
X170721905Y-130363438D02*
X170817143Y-130315819D01*
X170817143Y-130315819D02*
X171055238Y-130315819D01*
X171055238Y-130315819D02*
X171198095Y-130363438D01*
X171531429Y-130315819D02*
X171769524Y-131315819D01*
X171769524Y-131315819D02*
X171960000Y-130601533D01*
X171960000Y-130601533D02*
X172150476Y-131315819D01*
X172150476Y-131315819D02*
X172388572Y-130315819D01*
X172912381Y-130744390D02*
X172817143Y-130696771D01*
X172817143Y-130696771D02*
X172769524Y-130649152D01*
X172769524Y-130649152D02*
X172721905Y-130553914D01*
X172721905Y-130553914D02*
X172721905Y-130506295D01*
X172721905Y-130506295D02*
X172769524Y-130411057D01*
X172769524Y-130411057D02*
X172817143Y-130363438D01*
X172817143Y-130363438D02*
X172912381Y-130315819D01*
X172912381Y-130315819D02*
X173102857Y-130315819D01*
X173102857Y-130315819D02*
X173198095Y-130363438D01*
X173198095Y-130363438D02*
X173245714Y-130411057D01*
X173245714Y-130411057D02*
X173293333Y-130506295D01*
X173293333Y-130506295D02*
X173293333Y-130553914D01*
X173293333Y-130553914D02*
X173245714Y-130649152D01*
X173245714Y-130649152D02*
X173198095Y-130696771D01*
X173198095Y-130696771D02*
X173102857Y-130744390D01*
X173102857Y-130744390D02*
X172912381Y-130744390D01*
X172912381Y-130744390D02*
X172817143Y-130792009D01*
X172817143Y-130792009D02*
X172769524Y-130839628D01*
X172769524Y-130839628D02*
X172721905Y-130934866D01*
X172721905Y-130934866D02*
X172721905Y-131125342D01*
X172721905Y-131125342D02*
X172769524Y-131220580D01*
X172769524Y-131220580D02*
X172817143Y-131268200D01*
X172817143Y-131268200D02*
X172912381Y-131315819D01*
X172912381Y-131315819D02*
X173102857Y-131315819D01*
X173102857Y-131315819D02*
X173198095Y-131268200D01*
X173198095Y-131268200D02*
X173245714Y-131220580D01*
X173245714Y-131220580D02*
X173293333Y-131125342D01*
X173293333Y-131125342D02*
X173293333Y-130934866D01*
X173293333Y-130934866D02*
X173245714Y-130839628D01*
X173245714Y-130839628D02*
X173198095Y-130792009D01*
X173198095Y-130792009D02*
X173102857Y-130744390D01*
X130681905Y-102677319D02*
X130681905Y-101677319D01*
X130681905Y-101677319D02*
X130920000Y-101677319D01*
X130920000Y-101677319D02*
X131062857Y-101724938D01*
X131062857Y-101724938D02*
X131158095Y-101820176D01*
X131158095Y-101820176D02*
X131205714Y-101915414D01*
X131205714Y-101915414D02*
X131253333Y-102105890D01*
X131253333Y-102105890D02*
X131253333Y-102248747D01*
X131253333Y-102248747D02*
X131205714Y-102439223D01*
X131205714Y-102439223D02*
X131158095Y-102534461D01*
X131158095Y-102534461D02*
X131062857Y-102629700D01*
X131062857Y-102629700D02*
X130920000Y-102677319D01*
X130920000Y-102677319D02*
X130681905Y-102677319D01*
X131586667Y-101677319D02*
X132205714Y-101677319D01*
X132205714Y-101677319D02*
X131872381Y-102058271D01*
X131872381Y-102058271D02*
X132015238Y-102058271D01*
X132015238Y-102058271D02*
X132110476Y-102105890D01*
X132110476Y-102105890D02*
X132158095Y-102153509D01*
X132158095Y-102153509D02*
X132205714Y-102248747D01*
X132205714Y-102248747D02*
X132205714Y-102486842D01*
X132205714Y-102486842D02*
X132158095Y-102582080D01*
X132158095Y-102582080D02*
X132110476Y-102629700D01*
X132110476Y-102629700D02*
X132015238Y-102677319D01*
X132015238Y-102677319D02*
X131729524Y-102677319D01*
X131729524Y-102677319D02*
X131634286Y-102629700D01*
X131634286Y-102629700D02*
X131586667Y-102582080D01*
X134351905Y-104861604D02*
X134828095Y-104861604D01*
X134256667Y-105147319D02*
X134590000Y-104147319D01*
X134590000Y-104147319D02*
X134923333Y-105147319D01*
X130686905Y-135677319D02*
X130686905Y-134677319D01*
X130686905Y-134677319D02*
X130925000Y-134677319D01*
X130925000Y-134677319D02*
X131067857Y-134724938D01*
X131067857Y-134724938D02*
X131163095Y-134820176D01*
X131163095Y-134820176D02*
X131210714Y-134915414D01*
X131210714Y-134915414D02*
X131258333Y-135105890D01*
X131258333Y-135105890D02*
X131258333Y-135248747D01*
X131258333Y-135248747D02*
X131210714Y-135439223D01*
X131210714Y-135439223D02*
X131163095Y-135534461D01*
X131163095Y-135534461D02*
X131067857Y-135629700D01*
X131067857Y-135629700D02*
X130925000Y-135677319D01*
X130925000Y-135677319D02*
X130686905Y-135677319D01*
X131829762Y-135105890D02*
X131734524Y-135058271D01*
X131734524Y-135058271D02*
X131686905Y-135010652D01*
X131686905Y-135010652D02*
X131639286Y-134915414D01*
X131639286Y-134915414D02*
X131639286Y-134867795D01*
X131639286Y-134867795D02*
X131686905Y-134772557D01*
X131686905Y-134772557D02*
X131734524Y-134724938D01*
X131734524Y-134724938D02*
X131829762Y-134677319D01*
X131829762Y-134677319D02*
X132020238Y-134677319D01*
X132020238Y-134677319D02*
X132115476Y-134724938D01*
X132115476Y-134724938D02*
X132163095Y-134772557D01*
X132163095Y-134772557D02*
X132210714Y-134867795D01*
X132210714Y-134867795D02*
X132210714Y-134915414D01*
X132210714Y-134915414D02*
X132163095Y-135010652D01*
X132163095Y-135010652D02*
X132115476Y-135058271D01*
X132115476Y-135058271D02*
X132020238Y-135105890D01*
X132020238Y-135105890D02*
X131829762Y-135105890D01*
X131829762Y-135105890D02*
X131734524Y-135153509D01*
X131734524Y-135153509D02*
X131686905Y-135201128D01*
X131686905Y-135201128D02*
X131639286Y-135296366D01*
X131639286Y-135296366D02*
X131639286Y-135486842D01*
X131639286Y-135486842D02*
X131686905Y-135582080D01*
X131686905Y-135582080D02*
X131734524Y-135629700D01*
X131734524Y-135629700D02*
X131829762Y-135677319D01*
X131829762Y-135677319D02*
X132020238Y-135677319D01*
X132020238Y-135677319D02*
X132115476Y-135629700D01*
X132115476Y-135629700D02*
X132163095Y-135582080D01*
X132163095Y-135582080D02*
X132210714Y-135486842D01*
X132210714Y-135486842D02*
X132210714Y-135296366D01*
X132210714Y-135296366D02*
X132163095Y-135201128D01*
X132163095Y-135201128D02*
X132115476Y-135153509D01*
X132115476Y-135153509D02*
X132020238Y-135105890D01*
X134356905Y-137861604D02*
X134833095Y-137861604D01*
X134261667Y-138147319D02*
X134595000Y-137147319D01*
X134595000Y-137147319D02*
X134928333Y-138147319D01*
X130686905Y-121677319D02*
X130686905Y-120677319D01*
X130686905Y-120677319D02*
X130925000Y-120677319D01*
X130925000Y-120677319D02*
X131067857Y-120724938D01*
X131067857Y-120724938D02*
X131163095Y-120820176D01*
X131163095Y-120820176D02*
X131210714Y-120915414D01*
X131210714Y-120915414D02*
X131258333Y-121105890D01*
X131258333Y-121105890D02*
X131258333Y-121248747D01*
X131258333Y-121248747D02*
X131210714Y-121439223D01*
X131210714Y-121439223D02*
X131163095Y-121534461D01*
X131163095Y-121534461D02*
X131067857Y-121629700D01*
X131067857Y-121629700D02*
X130925000Y-121677319D01*
X130925000Y-121677319D02*
X130686905Y-121677319D01*
X132115476Y-120677319D02*
X131925000Y-120677319D01*
X131925000Y-120677319D02*
X131829762Y-120724938D01*
X131829762Y-120724938D02*
X131782143Y-120772557D01*
X131782143Y-120772557D02*
X131686905Y-120915414D01*
X131686905Y-120915414D02*
X131639286Y-121105890D01*
X131639286Y-121105890D02*
X131639286Y-121486842D01*
X131639286Y-121486842D02*
X131686905Y-121582080D01*
X131686905Y-121582080D02*
X131734524Y-121629700D01*
X131734524Y-121629700D02*
X131829762Y-121677319D01*
X131829762Y-121677319D02*
X132020238Y-121677319D01*
X132020238Y-121677319D02*
X132115476Y-121629700D01*
X132115476Y-121629700D02*
X132163095Y-121582080D01*
X132163095Y-121582080D02*
X132210714Y-121486842D01*
X132210714Y-121486842D02*
X132210714Y-121248747D01*
X132210714Y-121248747D02*
X132163095Y-121153509D01*
X132163095Y-121153509D02*
X132115476Y-121105890D01*
X132115476Y-121105890D02*
X132020238Y-121058271D01*
X132020238Y-121058271D02*
X131829762Y-121058271D01*
X131829762Y-121058271D02*
X131734524Y-121105890D01*
X131734524Y-121105890D02*
X131686905Y-121153509D01*
X131686905Y-121153509D02*
X131639286Y-121248747D01*
X134356905Y-123861604D02*
X134833095Y-123861604D01*
X134261667Y-124147319D02*
X134595000Y-123147319D01*
X134595000Y-123147319D02*
X134928333Y-124147319D01*
X151126667Y-111768200D02*
X151269524Y-111815819D01*
X151269524Y-111815819D02*
X151507619Y-111815819D01*
X151507619Y-111815819D02*
X151602857Y-111768200D01*
X151602857Y-111768200D02*
X151650476Y-111720580D01*
X151650476Y-111720580D02*
X151698095Y-111625342D01*
X151698095Y-111625342D02*
X151698095Y-111530104D01*
X151698095Y-111530104D02*
X151650476Y-111434866D01*
X151650476Y-111434866D02*
X151602857Y-111387247D01*
X151602857Y-111387247D02*
X151507619Y-111339628D01*
X151507619Y-111339628D02*
X151317143Y-111292009D01*
X151317143Y-111292009D02*
X151221905Y-111244390D01*
X151221905Y-111244390D02*
X151174286Y-111196771D01*
X151174286Y-111196771D02*
X151126667Y-111101533D01*
X151126667Y-111101533D02*
X151126667Y-111006295D01*
X151126667Y-111006295D02*
X151174286Y-110911057D01*
X151174286Y-110911057D02*
X151221905Y-110863438D01*
X151221905Y-110863438D02*
X151317143Y-110815819D01*
X151317143Y-110815819D02*
X151555238Y-110815819D01*
X151555238Y-110815819D02*
X151698095Y-110863438D01*
X152031429Y-110815819D02*
X152269524Y-111815819D01*
X152269524Y-111815819D02*
X152460000Y-111101533D01*
X152460000Y-111101533D02*
X152650476Y-111815819D01*
X152650476Y-111815819D02*
X152888572Y-110815819D01*
X153698095Y-111149152D02*
X153698095Y-111815819D01*
X153460000Y-110768200D02*
X153221905Y-111482485D01*
X153221905Y-111482485D02*
X153840952Y-111482485D01*
X130686905Y-130177319D02*
X130686905Y-129177319D01*
X130686905Y-129177319D02*
X130925000Y-129177319D01*
X130925000Y-129177319D02*
X131067857Y-129224938D01*
X131067857Y-129224938D02*
X131163095Y-129320176D01*
X131163095Y-129320176D02*
X131210714Y-129415414D01*
X131210714Y-129415414D02*
X131258333Y-129605890D01*
X131258333Y-129605890D02*
X131258333Y-129748747D01*
X131258333Y-129748747D02*
X131210714Y-129939223D01*
X131210714Y-129939223D02*
X131163095Y-130034461D01*
X131163095Y-130034461D02*
X131067857Y-130129700D01*
X131067857Y-130129700D02*
X130925000Y-130177319D01*
X130925000Y-130177319D02*
X130686905Y-130177319D01*
X131591667Y-129177319D02*
X132258333Y-129177319D01*
X132258333Y-129177319D02*
X131829762Y-130177319D01*
X134356905Y-132361604D02*
X134833095Y-132361604D01*
X134261667Y-132647319D02*
X134595000Y-131647319D01*
X134595000Y-131647319D02*
X134928333Y-132647319D01*
X170626667Y-92268200D02*
X170769524Y-92315819D01*
X170769524Y-92315819D02*
X171007619Y-92315819D01*
X171007619Y-92315819D02*
X171102857Y-92268200D01*
X171102857Y-92268200D02*
X171150476Y-92220580D01*
X171150476Y-92220580D02*
X171198095Y-92125342D01*
X171198095Y-92125342D02*
X171198095Y-92030104D01*
X171198095Y-92030104D02*
X171150476Y-91934866D01*
X171150476Y-91934866D02*
X171102857Y-91887247D01*
X171102857Y-91887247D02*
X171007619Y-91839628D01*
X171007619Y-91839628D02*
X170817143Y-91792009D01*
X170817143Y-91792009D02*
X170721905Y-91744390D01*
X170721905Y-91744390D02*
X170674286Y-91696771D01*
X170674286Y-91696771D02*
X170626667Y-91601533D01*
X170626667Y-91601533D02*
X170626667Y-91506295D01*
X170626667Y-91506295D02*
X170674286Y-91411057D01*
X170674286Y-91411057D02*
X170721905Y-91363438D01*
X170721905Y-91363438D02*
X170817143Y-91315819D01*
X170817143Y-91315819D02*
X171055238Y-91315819D01*
X171055238Y-91315819D02*
X171198095Y-91363438D01*
X171531429Y-91315819D02*
X171769524Y-92315819D01*
X171769524Y-92315819D02*
X171960000Y-91601533D01*
X171960000Y-91601533D02*
X172150476Y-92315819D01*
X172150476Y-92315819D02*
X172388572Y-91315819D01*
X172721905Y-91411057D02*
X172769524Y-91363438D01*
X172769524Y-91363438D02*
X172864762Y-91315819D01*
X172864762Y-91315819D02*
X173102857Y-91315819D01*
X173102857Y-91315819D02*
X173198095Y-91363438D01*
X173198095Y-91363438D02*
X173245714Y-91411057D01*
X173245714Y-91411057D02*
X173293333Y-91506295D01*
X173293333Y-91506295D02*
X173293333Y-91601533D01*
X173293333Y-91601533D02*
X173245714Y-91744390D01*
X173245714Y-91744390D02*
X172674286Y-92315819D01*
X172674286Y-92315819D02*
X173293333Y-92315819D01*
X130681905Y-141177319D02*
X130681905Y-140177319D01*
X130681905Y-140177319D02*
X130920000Y-140177319D01*
X130920000Y-140177319D02*
X131062857Y-140224938D01*
X131062857Y-140224938D02*
X131158095Y-140320176D01*
X131158095Y-140320176D02*
X131205714Y-140415414D01*
X131205714Y-140415414D02*
X131253333Y-140605890D01*
X131253333Y-140605890D02*
X131253333Y-140748747D01*
X131253333Y-140748747D02*
X131205714Y-140939223D01*
X131205714Y-140939223D02*
X131158095Y-141034461D01*
X131158095Y-141034461D02*
X131062857Y-141129700D01*
X131062857Y-141129700D02*
X130920000Y-141177319D01*
X130920000Y-141177319D02*
X130681905Y-141177319D01*
X131729524Y-141177319D02*
X131920000Y-141177319D01*
X131920000Y-141177319D02*
X132015238Y-141129700D01*
X132015238Y-141129700D02*
X132062857Y-141082080D01*
X132062857Y-141082080D02*
X132158095Y-140939223D01*
X132158095Y-140939223D02*
X132205714Y-140748747D01*
X132205714Y-140748747D02*
X132205714Y-140367795D01*
X132205714Y-140367795D02*
X132158095Y-140272557D01*
X132158095Y-140272557D02*
X132110476Y-140224938D01*
X132110476Y-140224938D02*
X132015238Y-140177319D01*
X132015238Y-140177319D02*
X131824762Y-140177319D01*
X131824762Y-140177319D02*
X131729524Y-140224938D01*
X131729524Y-140224938D02*
X131681905Y-140272557D01*
X131681905Y-140272557D02*
X131634286Y-140367795D01*
X131634286Y-140367795D02*
X131634286Y-140605890D01*
X131634286Y-140605890D02*
X131681905Y-140701128D01*
X131681905Y-140701128D02*
X131729524Y-140748747D01*
X131729524Y-140748747D02*
X131824762Y-140796366D01*
X131824762Y-140796366D02*
X132015238Y-140796366D01*
X132015238Y-140796366D02*
X132110476Y-140748747D01*
X132110476Y-140748747D02*
X132158095Y-140701128D01*
X132158095Y-140701128D02*
X132205714Y-140605890D01*
X134351905Y-143361604D02*
X134828095Y-143361604D01*
X134256667Y-143647319D02*
X134590000Y-142647319D01*
X134590000Y-142647319D02*
X134923333Y-143647319D01*
X190126667Y-131268200D02*
X190269524Y-131315819D01*
X190269524Y-131315819D02*
X190507619Y-131315819D01*
X190507619Y-131315819D02*
X190602857Y-131268200D01*
X190602857Y-131268200D02*
X190650476Y-131220580D01*
X190650476Y-131220580D02*
X190698095Y-131125342D01*
X190698095Y-131125342D02*
X190698095Y-131030104D01*
X190698095Y-131030104D02*
X190650476Y-130934866D01*
X190650476Y-130934866D02*
X190602857Y-130887247D01*
X190602857Y-130887247D02*
X190507619Y-130839628D01*
X190507619Y-130839628D02*
X190317143Y-130792009D01*
X190317143Y-130792009D02*
X190221905Y-130744390D01*
X190221905Y-130744390D02*
X190174286Y-130696771D01*
X190174286Y-130696771D02*
X190126667Y-130601533D01*
X190126667Y-130601533D02*
X190126667Y-130506295D01*
X190126667Y-130506295D02*
X190174286Y-130411057D01*
X190174286Y-130411057D02*
X190221905Y-130363438D01*
X190221905Y-130363438D02*
X190317143Y-130315819D01*
X190317143Y-130315819D02*
X190555238Y-130315819D01*
X190555238Y-130315819D02*
X190698095Y-130363438D01*
X191031429Y-130315819D02*
X191269524Y-131315819D01*
X191269524Y-131315819D02*
X191460000Y-130601533D01*
X191460000Y-130601533D02*
X191650476Y-131315819D01*
X191650476Y-131315819D02*
X191888572Y-130315819D01*
X192317143Y-131315819D02*
X192507619Y-131315819D01*
X192507619Y-131315819D02*
X192602857Y-131268200D01*
X192602857Y-131268200D02*
X192650476Y-131220580D01*
X192650476Y-131220580D02*
X192745714Y-131077723D01*
X192745714Y-131077723D02*
X192793333Y-130887247D01*
X192793333Y-130887247D02*
X192793333Y-130506295D01*
X192793333Y-130506295D02*
X192745714Y-130411057D01*
X192745714Y-130411057D02*
X192698095Y-130363438D01*
X192698095Y-130363438D02*
X192602857Y-130315819D01*
X192602857Y-130315819D02*
X192412381Y-130315819D01*
X192412381Y-130315819D02*
X192317143Y-130363438D01*
X192317143Y-130363438D02*
X192269524Y-130411057D01*
X192269524Y-130411057D02*
X192221905Y-130506295D01*
X192221905Y-130506295D02*
X192221905Y-130744390D01*
X192221905Y-130744390D02*
X192269524Y-130839628D01*
X192269524Y-130839628D02*
X192317143Y-130887247D01*
X192317143Y-130887247D02*
X192412381Y-130934866D01*
X192412381Y-130934866D02*
X192602857Y-130934866D01*
X192602857Y-130934866D02*
X192698095Y-130887247D01*
X192698095Y-130887247D02*
X192745714Y-130839628D01*
X192745714Y-130839628D02*
X192793333Y-130744390D01*
X191140476Y-66402200D02*
X191283333Y-66449819D01*
X191283333Y-66449819D02*
X191521428Y-66449819D01*
X191521428Y-66449819D02*
X191616666Y-66402200D01*
X191616666Y-66402200D02*
X191664285Y-66354580D01*
X191664285Y-66354580D02*
X191711904Y-66259342D01*
X191711904Y-66259342D02*
X191711904Y-66164104D01*
X191711904Y-66164104D02*
X191664285Y-66068866D01*
X191664285Y-66068866D02*
X191616666Y-66021247D01*
X191616666Y-66021247D02*
X191521428Y-65973628D01*
X191521428Y-65973628D02*
X191330952Y-65926009D01*
X191330952Y-65926009D02*
X191235714Y-65878390D01*
X191235714Y-65878390D02*
X191188095Y-65830771D01*
X191188095Y-65830771D02*
X191140476Y-65735533D01*
X191140476Y-65735533D02*
X191140476Y-65640295D01*
X191140476Y-65640295D02*
X191188095Y-65545057D01*
X191188095Y-65545057D02*
X191235714Y-65497438D01*
X191235714Y-65497438D02*
X191330952Y-65449819D01*
X191330952Y-65449819D02*
X191569047Y-65449819D01*
X191569047Y-65449819D02*
X191711904Y-65497438D01*
X192045238Y-65449819D02*
X192283333Y-66449819D01*
X192283333Y-66449819D02*
X192473809Y-65735533D01*
X192473809Y-65735533D02*
X192664285Y-66449819D01*
X192664285Y-66449819D02*
X192902381Y-65449819D01*
X193807142Y-66449819D02*
X193235714Y-66449819D01*
X193521428Y-66449819D02*
X193521428Y-65449819D01*
X193521428Y-65449819D02*
X193426190Y-65592676D01*
X193426190Y-65592676D02*
X193330952Y-65687914D01*
X193330952Y-65687914D02*
X193235714Y-65735533D01*
X194426190Y-65449819D02*
X194521428Y-65449819D01*
X194521428Y-65449819D02*
X194616666Y-65497438D01*
X194616666Y-65497438D02*
X194664285Y-65545057D01*
X194664285Y-65545057D02*
X194711904Y-65640295D01*
X194711904Y-65640295D02*
X194759523Y-65830771D01*
X194759523Y-65830771D02*
X194759523Y-66068866D01*
X194759523Y-66068866D02*
X194711904Y-66259342D01*
X194711904Y-66259342D02*
X194664285Y-66354580D01*
X194664285Y-66354580D02*
X194616666Y-66402200D01*
X194616666Y-66402200D02*
X194521428Y-66449819D01*
X194521428Y-66449819D02*
X194426190Y-66449819D01*
X194426190Y-66449819D02*
X194330952Y-66402200D01*
X194330952Y-66402200D02*
X194283333Y-66354580D01*
X194283333Y-66354580D02*
X194235714Y-66259342D01*
X194235714Y-66259342D02*
X194188095Y-66068866D01*
X194188095Y-66068866D02*
X194188095Y-65830771D01*
X194188095Y-65830771D02*
X194235714Y-65640295D01*
X194235714Y-65640295D02*
X194283333Y-65545057D01*
X194283333Y-65545057D02*
X194330952Y-65497438D01*
X194330952Y-65497438D02*
X194426190Y-65449819D01*
X130686905Y-90677319D02*
X130686905Y-89677319D01*
X130686905Y-89677319D02*
X130925000Y-89677319D01*
X130925000Y-89677319D02*
X131067857Y-89724938D01*
X131067857Y-89724938D02*
X131163095Y-89820176D01*
X131163095Y-89820176D02*
X131210714Y-89915414D01*
X131210714Y-89915414D02*
X131258333Y-90105890D01*
X131258333Y-90105890D02*
X131258333Y-90248747D01*
X131258333Y-90248747D02*
X131210714Y-90439223D01*
X131210714Y-90439223D02*
X131163095Y-90534461D01*
X131163095Y-90534461D02*
X131067857Y-90629700D01*
X131067857Y-90629700D02*
X130925000Y-90677319D01*
X130925000Y-90677319D02*
X130686905Y-90677319D01*
X132210714Y-90677319D02*
X131639286Y-90677319D01*
X131925000Y-90677319D02*
X131925000Y-89677319D01*
X131925000Y-89677319D02*
X131829762Y-89820176D01*
X131829762Y-89820176D02*
X131734524Y-89915414D01*
X131734524Y-89915414D02*
X131639286Y-89963033D01*
X134356905Y-92861604D02*
X134833095Y-92861604D01*
X134261667Y-93147319D02*
X134595000Y-92147319D01*
X134595000Y-92147319D02*
X134928333Y-93147319D01*
X151126667Y-131268200D02*
X151269524Y-131315819D01*
X151269524Y-131315819D02*
X151507619Y-131315819D01*
X151507619Y-131315819D02*
X151602857Y-131268200D01*
X151602857Y-131268200D02*
X151650476Y-131220580D01*
X151650476Y-131220580D02*
X151698095Y-131125342D01*
X151698095Y-131125342D02*
X151698095Y-131030104D01*
X151698095Y-131030104D02*
X151650476Y-130934866D01*
X151650476Y-130934866D02*
X151602857Y-130887247D01*
X151602857Y-130887247D02*
X151507619Y-130839628D01*
X151507619Y-130839628D02*
X151317143Y-130792009D01*
X151317143Y-130792009D02*
X151221905Y-130744390D01*
X151221905Y-130744390D02*
X151174286Y-130696771D01*
X151174286Y-130696771D02*
X151126667Y-130601533D01*
X151126667Y-130601533D02*
X151126667Y-130506295D01*
X151126667Y-130506295D02*
X151174286Y-130411057D01*
X151174286Y-130411057D02*
X151221905Y-130363438D01*
X151221905Y-130363438D02*
X151317143Y-130315819D01*
X151317143Y-130315819D02*
X151555238Y-130315819D01*
X151555238Y-130315819D02*
X151698095Y-130363438D01*
X152031429Y-130315819D02*
X152269524Y-131315819D01*
X152269524Y-131315819D02*
X152460000Y-130601533D01*
X152460000Y-130601533D02*
X152650476Y-131315819D01*
X152650476Y-131315819D02*
X152888572Y-130315819D01*
X153174286Y-130315819D02*
X153840952Y-130315819D01*
X153840952Y-130315819D02*
X153412381Y-131315819D01*
X130681905Y-110677319D02*
X130681905Y-109677319D01*
X130681905Y-109677319D02*
X130920000Y-109677319D01*
X130920000Y-109677319D02*
X131062857Y-109724938D01*
X131062857Y-109724938D02*
X131158095Y-109820176D01*
X131158095Y-109820176D02*
X131205714Y-109915414D01*
X131205714Y-109915414D02*
X131253333Y-110105890D01*
X131253333Y-110105890D02*
X131253333Y-110248747D01*
X131253333Y-110248747D02*
X131205714Y-110439223D01*
X131205714Y-110439223D02*
X131158095Y-110534461D01*
X131158095Y-110534461D02*
X131062857Y-110629700D01*
X131062857Y-110629700D02*
X130920000Y-110677319D01*
X130920000Y-110677319D02*
X130681905Y-110677319D01*
X132110476Y-110010652D02*
X132110476Y-110677319D01*
X131872381Y-109629700D02*
X131634286Y-110343985D01*
X131634286Y-110343985D02*
X132253333Y-110343985D01*
X134351905Y-112861604D02*
X134828095Y-112861604D01*
X134256667Y-113147319D02*
X134590000Y-112147319D01*
X134590000Y-112147319D02*
X134923333Y-113147319D01*
X130686905Y-96677319D02*
X130686905Y-95677319D01*
X130686905Y-95677319D02*
X130925000Y-95677319D01*
X130925000Y-95677319D02*
X131067857Y-95724938D01*
X131067857Y-95724938D02*
X131163095Y-95820176D01*
X131163095Y-95820176D02*
X131210714Y-95915414D01*
X131210714Y-95915414D02*
X131258333Y-96105890D01*
X131258333Y-96105890D02*
X131258333Y-96248747D01*
X131258333Y-96248747D02*
X131210714Y-96439223D01*
X131210714Y-96439223D02*
X131163095Y-96534461D01*
X131163095Y-96534461D02*
X131067857Y-96629700D01*
X131067857Y-96629700D02*
X130925000Y-96677319D01*
X130925000Y-96677319D02*
X130686905Y-96677319D01*
X131639286Y-95772557D02*
X131686905Y-95724938D01*
X131686905Y-95724938D02*
X131782143Y-95677319D01*
X131782143Y-95677319D02*
X132020238Y-95677319D01*
X132020238Y-95677319D02*
X132115476Y-95724938D01*
X132115476Y-95724938D02*
X132163095Y-95772557D01*
X132163095Y-95772557D02*
X132210714Y-95867795D01*
X132210714Y-95867795D02*
X132210714Y-95963033D01*
X132210714Y-95963033D02*
X132163095Y-96105890D01*
X132163095Y-96105890D02*
X131591667Y-96677319D01*
X131591667Y-96677319D02*
X132210714Y-96677319D01*
X134356905Y-98861604D02*
X134833095Y-98861604D01*
X134261667Y-99147319D02*
X134595000Y-98147319D01*
X134595000Y-98147319D02*
X134928333Y-99147319D01*
X180816666Y-66879819D02*
X180816666Y-67594104D01*
X180816666Y-67594104D02*
X180769047Y-67736961D01*
X180769047Y-67736961D02*
X180673809Y-67832200D01*
X180673809Y-67832200D02*
X180530952Y-67879819D01*
X180530952Y-67879819D02*
X180435714Y-67879819D01*
X181816666Y-67879819D02*
X181245238Y-67879819D01*
X181530952Y-67879819D02*
X181530952Y-66879819D01*
X181530952Y-66879819D02*
X181435714Y-67022676D01*
X181435714Y-67022676D02*
X181340476Y-67117914D01*
X181340476Y-67117914D02*
X181245238Y-67165533D01*
X190126667Y-92268200D02*
X190269524Y-92315819D01*
X190269524Y-92315819D02*
X190507619Y-92315819D01*
X190507619Y-92315819D02*
X190602857Y-92268200D01*
X190602857Y-92268200D02*
X190650476Y-92220580D01*
X190650476Y-92220580D02*
X190698095Y-92125342D01*
X190698095Y-92125342D02*
X190698095Y-92030104D01*
X190698095Y-92030104D02*
X190650476Y-91934866D01*
X190650476Y-91934866D02*
X190602857Y-91887247D01*
X190602857Y-91887247D02*
X190507619Y-91839628D01*
X190507619Y-91839628D02*
X190317143Y-91792009D01*
X190317143Y-91792009D02*
X190221905Y-91744390D01*
X190221905Y-91744390D02*
X190174286Y-91696771D01*
X190174286Y-91696771D02*
X190126667Y-91601533D01*
X190126667Y-91601533D02*
X190126667Y-91506295D01*
X190126667Y-91506295D02*
X190174286Y-91411057D01*
X190174286Y-91411057D02*
X190221905Y-91363438D01*
X190221905Y-91363438D02*
X190317143Y-91315819D01*
X190317143Y-91315819D02*
X190555238Y-91315819D01*
X190555238Y-91315819D02*
X190698095Y-91363438D01*
X191031429Y-91315819D02*
X191269524Y-92315819D01*
X191269524Y-92315819D02*
X191460000Y-91601533D01*
X191460000Y-91601533D02*
X191650476Y-92315819D01*
X191650476Y-92315819D02*
X191888572Y-91315819D01*
X192174286Y-91315819D02*
X192793333Y-91315819D01*
X192793333Y-91315819D02*
X192460000Y-91696771D01*
X192460000Y-91696771D02*
X192602857Y-91696771D01*
X192602857Y-91696771D02*
X192698095Y-91744390D01*
X192698095Y-91744390D02*
X192745714Y-91792009D01*
X192745714Y-91792009D02*
X192793333Y-91887247D01*
X192793333Y-91887247D02*
X192793333Y-92125342D01*
X192793333Y-92125342D02*
X192745714Y-92220580D01*
X192745714Y-92220580D02*
X192698095Y-92268200D01*
X192698095Y-92268200D02*
X192602857Y-92315819D01*
X192602857Y-92315819D02*
X192317143Y-92315819D01*
X192317143Y-92315819D02*
X192221905Y-92268200D01*
X192221905Y-92268200D02*
X192174286Y-92220580D01*
D12*
%TO.C,SW5*%
X164975000Y-112250000D02*
X178945000Y-112250000D01*
X164975000Y-126220000D02*
X164975000Y-112250000D01*
X178945000Y-112250000D02*
X178945000Y-126220000D01*
X178945000Y-126220000D02*
X164975000Y-126220000D01*
%TO.C,D5*%
X131208537Y-119212500D02*
G75*
G02*
X131208537Y-117172500I-1058537J1020000D01*
G01*
%TO.C,SW6*%
X184475000Y-112250000D02*
X198445000Y-112250000D01*
X184475000Y-126220000D02*
X184475000Y-112250000D01*
X198445000Y-112250000D02*
X198445000Y-126220000D01*
X198445000Y-126220000D02*
X184475000Y-126220000D01*
%TO.C,SW1*%
X145475000Y-92750000D02*
X159445000Y-92750000D01*
X145475000Y-106720000D02*
X145475000Y-92750000D01*
X159445000Y-92750000D02*
X159445000Y-106720000D01*
X159445000Y-106720000D02*
X145475000Y-106720000D01*
%TO.C,SW8*%
X164975000Y-131750000D02*
X178945000Y-131750000D01*
X164975000Y-145720000D02*
X164975000Y-131750000D01*
X178945000Y-131750000D02*
X178945000Y-145720000D01*
X178945000Y-145720000D02*
X164975000Y-145720000D01*
%TO.C,D3*%
X131208537Y-105712500D02*
G75*
G02*
X131208537Y-103672500I-1058537J1020000D01*
G01*
%TO.C,D8*%
X131213537Y-138712500D02*
G75*
G02*
X131213537Y-136672500I-1058537J1020000D01*
G01*
%TO.C,D6*%
X131213537Y-124712500D02*
G75*
G02*
X131213537Y-122672500I-1058537J1020000D01*
G01*
%TO.C,SW4*%
X145475000Y-112250000D02*
X159445000Y-112250000D01*
X145475000Y-126220000D02*
X145475000Y-112250000D01*
X159445000Y-112250000D02*
X159445000Y-126220000D01*
X159445000Y-126220000D02*
X145475000Y-126220000D01*
%TO.C,D7*%
X131213537Y-133212500D02*
G75*
G02*
X131213537Y-131172500I-1058537J1020000D01*
G01*
%TO.C,SW2*%
X164975000Y-92750000D02*
X178945000Y-92750000D01*
X164975000Y-106720000D02*
X164975000Y-92750000D01*
X178945000Y-92750000D02*
X178945000Y-106720000D01*
X178945000Y-106720000D02*
X164975000Y-106720000D01*
D13*
%TO.C,U1*%
X121665000Y-83609000D02*
X135635000Y-83609000D01*
D14*
X135635000Y-62654000D02*
X121665000Y-62654000D01*
D13*
X135635000Y-62654000D02*
X121665000Y-62654000D01*
X119760000Y-64559000D02*
G75*
G02*
X121665000Y-62654000I1905001J-1D01*
G01*
X121665000Y-83609000D02*
G75*
G02*
X119760000Y-81704000I1J1905001D01*
G01*
X135635000Y-62654000D02*
G75*
G02*
X137540000Y-64559000I0J-1905000D01*
G01*
X137540000Y-81704000D02*
G75*
G02*
X135635000Y-83609000I-1905000J0D01*
G01*
D15*
X119952000Y-62895000D02*
G75*
G02*
X119448000Y-62895000I-252000J0D01*
G01*
X119448000Y-62895000D02*
G75*
G02*
X119952000Y-62895000I252000J0D01*
G01*
X121095000Y-63775000D02*
G75*
G02*
X120591000Y-63775000I-252000J0D01*
G01*
X120591000Y-63775000D02*
G75*
G02*
X121095000Y-63775000I252000J0D01*
G01*
D12*
%TO.C,D9*%
X131208537Y-144212500D02*
G75*
G02*
X131208537Y-142172500I-1058537J1020000D01*
G01*
%TO.C,SW9*%
X184475000Y-131750000D02*
X198445000Y-131750000D01*
X184475000Y-145720000D02*
X184475000Y-131750000D01*
X198445000Y-131750000D02*
X198445000Y-145720000D01*
X198445000Y-145720000D02*
X184475000Y-145720000D01*
%TO.C,SW10*%
X189850000Y-69095000D02*
X190450000Y-69095000D01*
X190150000Y-69395000D02*
X189850000Y-69095000D01*
X190450000Y-69095000D02*
X190150000Y-69395000D01*
X191550000Y-67295000D02*
X191550000Y-79095000D01*
X195650000Y-67295000D02*
X191550000Y-67295000D01*
X195650000Y-79095000D02*
X191550000Y-79095000D01*
X197150000Y-73195000D02*
X198150000Y-73195000D01*
X197650000Y-72695000D02*
X197650000Y-73695000D01*
X199650000Y-67295000D02*
X203750000Y-67295000D01*
X203750000Y-67295000D02*
X203750000Y-69695000D01*
X203750000Y-71895000D02*
X203750000Y-74495000D01*
X203750000Y-76695000D02*
X203750000Y-79095000D01*
X203750000Y-79095000D02*
X199650000Y-79095000D01*
X200650000Y-73195000D02*
G75*
G02*
X194650000Y-73195000I-3000000J0D01*
G01*
X194650000Y-73195000D02*
G75*
G02*
X200650000Y-73195000I3000000J0D01*
G01*
%TO.C,D1*%
X131213537Y-93712500D02*
G75*
G02*
X131213537Y-91672500I-1058537J1020000D01*
G01*
%TO.C,SW7*%
X145475000Y-131750000D02*
X159445000Y-131750000D01*
X145475000Y-145720000D02*
X145475000Y-131750000D01*
X159445000Y-131750000D02*
X159445000Y-145720000D01*
X159445000Y-145720000D02*
X145475000Y-145720000D01*
%TO.C,D4*%
X131208537Y-113712500D02*
G75*
G02*
X131208537Y-111672500I-1058537J1020000D01*
G01*
%TO.C,D2*%
X131213537Y-99712500D02*
G75*
G02*
X131213537Y-97672500I-1058537J1020000D01*
G01*
%TO.C,J1*%
X179820000Y-71465000D02*
X179820000Y-79145000D01*
X179820000Y-71465000D02*
X182480000Y-71465000D01*
X179820000Y-79145000D02*
X182480000Y-79145000D01*
X181150000Y-68865000D02*
X182480000Y-68865000D01*
X182480000Y-68865000D02*
X182480000Y-70195000D01*
X182480000Y-71465000D02*
X182480000Y-79145000D01*
%TO.C,SW3*%
X184475000Y-92750000D02*
X198445000Y-92750000D01*
X184475000Y-106720000D02*
X184475000Y-92750000D01*
X198445000Y-92750000D02*
X198445000Y-106720000D01*
X198445000Y-106720000D02*
X184475000Y-106720000D01*
%TD*%
M02*
