%TF.GenerationSoftware,KiCad,Pcbnew,9.0.2*%
%TF.CreationDate,2025-07-03T21:35:02+02:00*%
%TF.ProjectId,dialpad,6469616c-7061-4642-9e6b-696361645f70,v1.0*%
%TF.SameCoordinates,Original*%
%TF.FileFunction,Copper,L2,Bot*%
%TF.FilePolarity,Positive*%
%FSLAX46Y46*%
G04 Gerber Fmt 4.6, Leading zero omitted, Abs format (unit mm)*
G04 Created by KiCad (PCBNEW 9.0.2) date 2025-07-03 21:35:02*
%MOMM*%
%LPD*%
G01*
G04 APERTURE LIST*
G04 Aperture macros list*
%AMRoundRect*
0 Rectangle with rounded corners*
0 $1 Rounding radius*
0 $2 $3 $4 $5 $6 $7 $8 $9 X,Y pos of 4 corners*
0 Add a 4 corners polygon primitive as box body*
4,1,4,$2,$3,$4,$5,$6,$7,$8,$9,$2,$3,0*
0 Add four circle primitives for the rounded corners*
1,1,$1+$1,$2,$3*
1,1,$1+$1,$4,$5*
1,1,$1+$1,$6,$7*
1,1,$1+$1,$8,$9*
0 Add four rect primitives between the rounded corners*
20,1,$1+$1,$2,$3,$4,$5,0*
20,1,$1+$1,$4,$5,$6,$7,0*
20,1,$1+$1,$6,$7,$8,$9,0*
20,1,$1+$1,$8,$9,$2,$3,0*%
G04 Aperture macros list end*
%TA.AperFunction,ComponentPad*%
%ADD10C,2.200000*%
%TD*%
%TA.AperFunction,ComponentPad*%
%ADD11RoundRect,0.250000X-0.650000X-0.650000X0.650000X-0.650000X0.650000X0.650000X-0.650000X0.650000X0*%
%TD*%
%TA.AperFunction,ComponentPad*%
%ADD12C,1.800000*%
%TD*%
%TA.AperFunction,ComponentPad*%
%ADD13C,1.524000*%
%TD*%
%TA.AperFunction,ComponentPad*%
%ADD14R,2.000000X2.000000*%
%TD*%
%TA.AperFunction,ComponentPad*%
%ADD15C,2.000000*%
%TD*%
%TA.AperFunction,ComponentPad*%
%ADD16C,3.200000*%
%TD*%
%TA.AperFunction,ComponentPad*%
%ADD17R,1.700000X1.700000*%
%TD*%
%TA.AperFunction,ComponentPad*%
%ADD18C,1.700000*%
%TD*%
%TA.AperFunction,Conductor*%
%ADD19C,0.250000*%
%TD*%
G04 APERTURE END LIST*
D10*
%TO.P,SW5,1,1*%
%TO.N,COL2*%
X174500000Y-114155000D03*
%TO.P,SW5,2,2*%
%TO.N,Net-(D5-A)*%
X168150000Y-116695000D03*
%TD*%
D11*
%TO.P,D5,1,K*%
%TO.N,ROW2*%
X130150000Y-118192500D03*
D12*
%TO.P,D5,2,A*%
%TO.N,Net-(D5-A)*%
X132690000Y-118192500D03*
%TD*%
D10*
%TO.P,SW6,1,1*%
%TO.N,COL3*%
X194000000Y-114155000D03*
%TO.P,SW6,2,2*%
%TO.N,Net-(D6-A)*%
X187650000Y-116695000D03*
%TD*%
%TO.P,SW1,1,1*%
%TO.N,COL1*%
X155000000Y-94655000D03*
%TO.P,SW1,2,2*%
%TO.N,Net-(D1-A)*%
X148650000Y-97195000D03*
%TD*%
%TO.P,SW8,1,1*%
%TO.N,COL2*%
X174500000Y-133655000D03*
%TO.P,SW8,2,2*%
%TO.N,Net-(D8-A)*%
X168150000Y-136195000D03*
%TD*%
D11*
%TO.P,D3,1,K*%
%TO.N,ROW1*%
X130150000Y-104692500D03*
D12*
%TO.P,D3,2,A*%
%TO.N,Net-(D3-A)*%
X132690000Y-104692500D03*
%TD*%
D11*
%TO.P,D8,1,K*%
%TO.N,ROW3*%
X130155000Y-137692500D03*
D12*
%TO.P,D8,2,A*%
%TO.N,Net-(D8-A)*%
X132695000Y-137692500D03*
%TD*%
D11*
%TO.P,D6,1,K*%
%TO.N,ROW2*%
X130155000Y-123692500D03*
D12*
%TO.P,D6,2,A*%
%TO.N,Net-(D6-A)*%
X132695000Y-123692500D03*
%TD*%
D10*
%TO.P,SW4,1,1*%
%TO.N,COL1*%
X155000000Y-114155000D03*
%TO.P,SW4,2,2*%
%TO.N,Net-(D4-A)*%
X148650000Y-116695000D03*
%TD*%
D11*
%TO.P,D7,1,K*%
%TO.N,ROW3*%
X130155000Y-132192500D03*
D12*
%TO.P,D7,2,A*%
%TO.N,Net-(D7-A)*%
X132695000Y-132192500D03*
%TD*%
D10*
%TO.P,SW2,1,1*%
%TO.N,COL2*%
X174500000Y-94655000D03*
%TO.P,SW2,2,2*%
%TO.N,Net-(D2-A)*%
X168150000Y-97195000D03*
%TD*%
D13*
%TO.P,U1,1,GPIO26/D0/ADC0*%
%TO.N,BTN*%
X121030000Y-65575000D03*
%TO.P,U1,2,GPIO27/D1/ADC1*%
%TO.N,ROTB*%
X121030000Y-68115000D03*
%TO.P,U1,3,GPIO28/D2/ADC2*%
%TO.N,ROTA*%
X121030000Y-70655000D03*
%TO.P,U1,4,GPIO5/D3/SPI_CS*%
%TO.N,ROW3*%
X121030000Y-73195000D03*
%TO.P,U1,5,GPIO6/D4/SDA1*%
%TO.N,SDA*%
X121030000Y-75735000D03*
%TO.P,U1,6,GPIO7/D5/SCL1*%
%TO.N,SCL*%
X121030000Y-78275000D03*
%TO.P,U1,7,GPIO0/D6/TX0*%
%TO.N,ROW2*%
X121030000Y-80815000D03*
%TO.P,U1,8,GPIO1/D7/RX0*%
%TO.N,COL1*%
X136270000Y-80815000D03*
%TO.P,U1,9,GPIO2/D8/SPI0_SCK*%
%TO.N,COL2*%
X136270000Y-78275000D03*
%TO.P,U1,10,GPIO4/D9/SPI_MISO*%
%TO.N,COL3*%
X136270000Y-75735000D03*
%TO.P,U1,11,GPIO3/D10/SPI0_MOSI*%
%TO.N,ROW1*%
X136270000Y-73195000D03*
%TO.P,U1,12,3V3*%
%TO.N,+3.3V*%
X136270000Y-70655000D03*
%TO.P,U1,13,GND*%
%TO.N,GND*%
X136270000Y-68115000D03*
%TO.P,U1,14,VBUS*%
%TO.N,+5V*%
X136270000Y-65575000D03*
%TD*%
D11*
%TO.P,D9,1,K*%
%TO.N,ROW3*%
X130150000Y-143192500D03*
D12*
%TO.P,D9,2,A*%
%TO.N,Net-(D9-A)*%
X132690000Y-143192500D03*
%TD*%
D10*
%TO.P,SW9,1,1*%
%TO.N,COL3*%
X194000000Y-133655000D03*
%TO.P,SW9,2,2*%
%TO.N,Net-(D9-A)*%
X187650000Y-136195000D03*
%TD*%
D14*
%TO.P,SW10,A,A*%
%TO.N,ROTA*%
X190150000Y-70695000D03*
D15*
%TO.P,SW10,B,B*%
%TO.N,ROTB*%
X190150000Y-75695000D03*
%TO.P,SW10,C,C*%
%TO.N,GND*%
X190150000Y-73195000D03*
D16*
%TO.P,SW10,MP*%
%TO.N,N/C*%
X197650000Y-67595000D03*
X197650000Y-78795000D03*
D15*
%TO.P,SW10,S1,S1*%
%TO.N,BTN*%
X204650000Y-75695000D03*
%TO.P,SW10,S2,S2*%
%TO.N,GND*%
X204650000Y-70695000D03*
%TD*%
D11*
%TO.P,D1,1,K*%
%TO.N,ROW1*%
X130155000Y-92692500D03*
D12*
%TO.P,D1,2,A*%
%TO.N,Net-(D1-A)*%
X132695000Y-92692500D03*
%TD*%
D10*
%TO.P,SW7,1,1*%
%TO.N,COL1*%
X155000000Y-133655000D03*
%TO.P,SW7,2,2*%
%TO.N,Net-(D7-A)*%
X148650000Y-136195000D03*
%TD*%
D11*
%TO.P,D4,1,K*%
%TO.N,ROW2*%
X130150000Y-112692500D03*
D12*
%TO.P,D4,2,A*%
%TO.N,Net-(D4-A)*%
X132690000Y-112692500D03*
%TD*%
D11*
%TO.P,D2,1,K*%
%TO.N,ROW1*%
X130155000Y-98692500D03*
D12*
%TO.P,D2,2,A*%
%TO.N,Net-(D2-A)*%
X132695000Y-98692500D03*
%TD*%
D17*
%TO.P,J1,1,Pin_1*%
%TO.N,GND*%
X181150000Y-70195000D03*
D18*
%TO.P,J1,2,Pin_2*%
%TO.N,+3.3V*%
X181150000Y-72735000D03*
%TO.P,J1,3,Pin_3*%
%TO.N,SCL*%
X181150000Y-75275000D03*
%TO.P,J1,4,Pin_4*%
%TO.N,SDA*%
X181150000Y-77815000D03*
%TD*%
D10*
%TO.P,SW3,1,1*%
%TO.N,COL3*%
X194000000Y-94655000D03*
%TO.P,SW3,2,2*%
%TO.N,Net-(D3-A)*%
X187650000Y-97195000D03*
%TD*%
D19*
%TO.N,Net-(D2-A)*%
X164650000Y-97195000D02*
X158150000Y-103695000D01*
X144150000Y-103695000D02*
X139147500Y-98692500D01*
X139147500Y-98692500D02*
X132695000Y-98692500D01*
X158150000Y-103695000D02*
X144150000Y-103695000D01*
X168150000Y-97195000D02*
X164650000Y-97195000D01*
%TO.N,Net-(D3-A)*%
X185550865Y-97195000D02*
X187650000Y-97195000D01*
X132690000Y-104692500D02*
X136647500Y-104692500D01*
X136647500Y-104692500D02*
X139150000Y-107195000D01*
X175550865Y-107195000D02*
X185550865Y-97195000D01*
X139150000Y-107195000D02*
X175550865Y-107195000D01*
%TO.N,Net-(D5-A)*%
X168105000Y-116697500D02*
X164605000Y-116697500D01*
X144105000Y-123197500D02*
X139102500Y-118195000D01*
X158105000Y-123197500D02*
X144105000Y-123197500D01*
X139102500Y-118195000D02*
X132650000Y-118195000D01*
X164605000Y-116697500D02*
X158105000Y-123197500D01*
%TO.N,Net-(D6-A)*%
X187650000Y-116695000D02*
X185650000Y-116695000D01*
X136607500Y-123695000D02*
X132650000Y-123695000D01*
X176147500Y-126197500D02*
X139110000Y-126197500D01*
X185650000Y-116695000D02*
X176147500Y-126197500D01*
X139110000Y-126197500D02*
X136607500Y-123695000D01*
%TO.N,Net-(D8-A)*%
X144150000Y-142695000D02*
X139147500Y-137692500D01*
X139147500Y-137692500D02*
X132695000Y-137692500D01*
X158150000Y-142695000D02*
X144150000Y-142695000D01*
X164650000Y-136195000D02*
X158150000Y-142695000D01*
X168150000Y-136195000D02*
X164650000Y-136195000D01*
%TO.N,Net-(D9-A)*%
X176147500Y-145697500D02*
X139110000Y-145697500D01*
X136607500Y-143195000D02*
X132650000Y-143195000D01*
X187650000Y-136195000D02*
X185650000Y-136195000D01*
X185650000Y-136195000D02*
X176147500Y-145697500D01*
X139110000Y-145697500D02*
X136607500Y-143195000D01*
%TO.N,SCL*%
X118070000Y-78275000D02*
X121030000Y-78275000D01*
X181150000Y-75275000D02*
X177730000Y-75275000D01*
X177730000Y-75275000D02*
X168310000Y-84695000D01*
X117150000Y-79195000D02*
X118070000Y-78275000D01*
X117150000Y-83195000D02*
X117150000Y-79195000D01*
X168310000Y-84695000D02*
X118650000Y-84695000D01*
X118650000Y-84695000D02*
X117150000Y-83195000D01*
%TO.N,SDA*%
X117110000Y-75735000D02*
X121030000Y-75735000D01*
X116150000Y-84195000D02*
X116150000Y-76695000D01*
X116150000Y-76695000D02*
X117110000Y-75735000D01*
X177530000Y-77815000D02*
X169150000Y-86195000D01*
X118150000Y-86195000D02*
X116150000Y-84195000D01*
X181150000Y-77815000D02*
X177530000Y-77815000D01*
X169150000Y-86195000D02*
X118150000Y-86195000D01*
%TO.N,ROTA*%
X115150000Y-85195000D02*
X115150000Y-71695000D01*
X190150000Y-70695000D02*
X187150000Y-70695000D01*
X116190000Y-70655000D02*
X121030000Y-70655000D01*
X177150000Y-87695000D02*
X117650000Y-87695000D01*
X117650000Y-87695000D02*
X115150000Y-85195000D01*
X185150000Y-79695000D02*
X177150000Y-87695000D01*
X187150000Y-70695000D02*
X185150000Y-72695000D01*
X185150000Y-72695000D02*
X185150000Y-79695000D01*
X115150000Y-71695000D02*
X116190000Y-70655000D01*
%TO.N,ROTB*%
X186650000Y-79695000D02*
X177150000Y-89195000D01*
X116230000Y-68115000D02*
X121030000Y-68115000D01*
X114150000Y-70195000D02*
X116230000Y-68115000D01*
X114150000Y-86195000D02*
X114150000Y-70195000D01*
X187650000Y-75695000D02*
X186650000Y-76695000D01*
X117150000Y-89195000D02*
X114150000Y-86195000D01*
X186650000Y-76695000D02*
X186650000Y-79695000D01*
X190150000Y-75695000D02*
X187650000Y-75695000D01*
X177150000Y-89195000D02*
X117150000Y-89195000D01*
%TD*%
M02*
