M48
; DRILL file {KiCad 9.0.2} date 2025-07-03T21:35:04+0200
; FORMAT={-:-/ absolute / inch / decimal}
; #@! TF.CreationDate,2025-07-03T21:35:04+02:00
; #@! TF.GenerationSoftware,Kicad,Pcbnew,9.0.2
; #@! TF.FileFunction,NonPlated,1,2,NPTH
FMAT,2
INCH
; #@! TA.AperFunction,NonPlated,NPTH,ComponentDrill
T1C0.0669
; #@! TA.AperFunction,NonPlated,NPTH,ComponentDrill
T2C0.1575
%
G90
G05
T1
X5.8024Y-3.9266
X5.8024Y-4.6943
X5.8024Y-5.462
X6.2024Y-3.9266
X6.2024Y-4.6943
X6.2024Y-5.462
X6.5701Y-3.9266
X6.5701Y-4.6943
X6.5701Y-5.462
X6.9701Y-3.9266
X6.9701Y-4.6943
X6.9701Y-5.462
X7.3378Y-3.9266
X7.3378Y-4.6943
X7.3378Y-5.462
X7.7378Y-3.9266
X7.7378Y-4.6943
X7.7378Y-5.462
T2
X6.0024Y-3.9266
X6.0024Y-4.6943
X6.0024Y-5.462
X6.7701Y-3.9266
X6.7701Y-4.6943
X6.7701Y-5.462
X7.5378Y-3.9266
X7.5378Y-4.6943
X7.5378Y-5.462
M30
