%TF.GenerationSoftware,KiCad,Pcbnew,9.0.2*%
%TF.CreationDate,2025-07-03T21:35:02+02:00*%
%TF.ProjectId,dialpad,6469616c-7061-4642-9e6b-696361645f70,v1.0*%
%TF.SameCoordinates,Original*%
%TF.FileFunction,Profile,NP*%
%FSLAX46Y46*%
G04 Gerber Fmt 4.6, Leading zero omitted, Abs format (unit mm)*
G04 Created by KiCad (PCBNEW 9.0.2) date 2025-07-03 21:35:02*
%MOMM*%
%LPD*%
G01*
G04 APERTURE LIST*
%TA.AperFunction,Profile*%
%ADD10C,0.100000*%
%TD*%
G04 APERTURE END LIST*
D10*
X116499995Y-146000000D02*
G75*
G02*
X113499995Y-146000000I-1500000J0D01*
G01*
X113499995Y-146000000D02*
G75*
G02*
X116499995Y-146000000I1500000J0D01*
G01*
X120500000Y-62250000D02*
X136500000Y-62250000D01*
X137500000Y-61250000D02*
G75*
G02*
X136500000Y-62250000I-1000000J0D01*
G01*
X204999995Y-151035534D02*
X114999995Y-151035534D01*
X114999995Y-151035534D02*
G75*
G02*
X109999966Y-146035534I5J5000034D01*
G01*
X206581139Y-85500000D02*
G75*
G02*
X203418861Y-85500000I-1581139J0D01*
G01*
X203418861Y-85500000D02*
G75*
G02*
X206581139Y-85500000I1581139J0D01*
G01*
X206500000Y-146035534D02*
G75*
G02*
X203500000Y-146035534I-1500000J0D01*
G01*
X203500000Y-146035534D02*
G75*
G02*
X206500000Y-146035534I1500000J0D01*
G01*
X137500000Y-59750000D02*
X137500000Y-61250000D01*
X138250000Y-59000000D02*
X205000000Y-59035534D01*
X109999995Y-146035530D02*
X110000000Y-64000000D01*
X110000000Y-64000000D02*
G75*
G02*
X115000000Y-59000000I5000000J0D01*
G01*
X209999995Y-64035534D02*
X209999995Y-146035534D01*
X118500000Y-59000000D02*
G75*
G02*
X119500000Y-60000000I0J-1000000D01*
G01*
X118500000Y-59000000D02*
X115000000Y-59000000D01*
X116581125Y-63999970D02*
G75*
G02*
X113418885Y-63999970I-1581120J0D01*
G01*
X113418885Y-63999970D02*
G75*
G02*
X116581125Y-63999970I1581120J0D01*
G01*
X120500000Y-62250000D02*
G75*
G02*
X119500000Y-61250000I0J1000000D01*
G01*
X209999995Y-146035534D02*
G75*
G02*
X204999995Y-151035495I-4999995J34D01*
G01*
X119500000Y-60000000D02*
X119500000Y-61250000D01*
X205000000Y-59035534D02*
G75*
G02*
X209999966Y-64035534I0J-4999966D01*
G01*
X137500000Y-59750000D02*
G75*
G02*
X138250000Y-59000000I750000J0D01*
G01*
M02*
