M48
; DRILL file {KiCad 9.0.2} date 2025-07-03T21:35:04+0200
; FORMAT={-:-/ absolute / inch / decimal}
; #@! TF.CreationDate,2025-07-03T21:35:04+02:00
; #@! TF.GenerationSoftware,Kicad,Pcbnew,9.0.2
; #@! TF.FileFunction,Plated,1,2,PTH
FMAT,2
INCH
; #@! TA.AperFunction,Plated,PTH,ComponentDrill
T1C0.0350
; #@! TA.AperFunction,Plated,PTH,ComponentDrill
T2C0.0354
; #@! TA.AperFunction,Plated,PTH,ComponentDrill
T3C0.0394
; #@! TA.AperFunction,Plated,PTH,ComponentDrill
T4C0.0591
; #@! TA.AperFunction,Plated,PTH,ComponentDrill
T5C0.1024
%
G90
G05
T1
X4.765Y-2.5817
X4.765Y-2.6817
X4.765Y-2.7817
X4.765Y-2.8817
X4.765Y-2.9817
X4.765Y-3.0817
X4.765Y-3.1817
X5.365Y-2.5817
X5.365Y-2.6817
X5.365Y-2.7817
X5.365Y-2.8817
X5.365Y-2.9817
X5.365Y-3.0817
X5.365Y-3.1817
T2
X5.124Y-4.1218
X5.124Y-4.4367
X5.124Y-4.6532
X5.124Y-5.6375
X5.1242Y-3.6493
X5.1242Y-3.8855
X5.1242Y-4.8698
X5.1242Y-5.2044
X5.1242Y-5.421
X5.224Y-4.1218
X5.224Y-4.4367
X5.224Y-4.6532
X5.224Y-5.6375
X5.2242Y-3.6493
X5.2242Y-3.8855
X5.2242Y-4.8698
X5.2242Y-5.2044
X5.2242Y-5.421
T3
X7.1319Y-2.7636
X7.1319Y-2.8636
X7.1319Y-2.9636
X7.1319Y-3.0636
X7.4862Y-2.7833
X7.4862Y-2.8817
X7.4862Y-2.9801
X8.0571Y-2.7833
X8.0571Y-2.9801
T4
X5.8524Y-3.8266
X5.8524Y-4.5943
X5.8524Y-5.362
X6.1024Y-3.7266
X6.1024Y-4.4943
X6.1024Y-5.262
X6.6201Y-3.8266
X6.6201Y-4.5943
X6.6201Y-5.362
X6.8701Y-3.7266
X6.8701Y-4.4943
X6.8701Y-5.262
X7.3878Y-3.8266
X7.3878Y-4.5943
X7.3878Y-5.362
X7.6378Y-3.7266
X7.6378Y-4.4943
X7.6378Y-5.262
T5
X7.7815Y-2.6612
X7.7815Y-3.1022
M30
